<svg width="60" height="60" viewBox="0 0 60 60" fill="none" xmlns="http://www.w3.org/2000/svg">
<path d="M24.9748 26.2119C23.5329 26.2119 22.3945 27.4063 22.3945 28.8634C22.3945 30.3206 23.5582 31.5149 24.9748 31.5149C26.4167 31.5149 27.5551 30.3206 27.5551 28.8634C27.5804 27.4063 26.4167 26.2119 24.9748 26.2119ZM34.2082 26.2119C32.7663 26.2119 31.6279 27.4063 31.6279 28.8634C31.6279 30.3206 32.7916 31.5149 34.2082 31.5149C35.6501 31.5149 36.7885 30.3206 36.7885 28.8634C36.7885 27.4063 35.6501 26.2119 34.2082 26.2119Z" fill="#7289DA"/>
<path d="M46.7922 5H13.1472C10.31 5 8 7.3 8 10.15V43.95C8 46.8 10.31 49.1 13.1472 49.1H41.6199L40.2892 44.475L43.503 47.45L46.5411 50.25L51.9394 55V10.15C51.9394 7.3 49.6294 5 46.7922 5ZM37.1004 37.65C37.1004 37.65 36.1965 36.575 35.4433 35.625C38.7325 34.7 39.9879 32.65 39.9879 32.65C38.9584 33.325 37.9792 33.8 37.1004 34.125C35.845 34.65 34.6398 35 33.4597 35.2C31.0494 35.65 28.8398 35.525 26.9567 35.175C25.5255 34.9 24.2952 34.5 23.2658 34.1C22.6883 33.875 22.0606 33.6 21.4329 33.25C21.3576 33.2 21.2823 33.175 21.2069 33.125C21.1567 33.1 21.1316 33.075 21.1065 33.05C20.6545 32.8 20.4035 32.625 20.4035 32.625C20.4035 32.625 21.6087 34.625 24.7974 35.575C24.0442 36.525 23.1152 37.65 23.1152 37.65C17.5662 37.475 15.4571 33.85 15.4571 33.85C15.4571 25.8 19.0727 19.275 19.0727 19.275C22.6883 16.575 26.1281 16.65 26.1281 16.65L26.3792 16.95C21.8597 18.25 19.7758 20.225 19.7758 20.225C19.7758 20.225 20.3281 19.925 21.2571 19.5C23.9437 18.325 26.0779 18 26.9567 17.925C27.1074 17.9 27.2329 17.875 27.3835 17.875C28.9151 17.675 30.6476 17.625 32.4554 17.825C34.8407 18.1 37.4017 18.8 40.013 20.225C40.013 20.225 38.0294 18.35 33.761 17.05L34.1126 16.65C34.1126 16.65 37.5524 16.575 41.168 19.275C41.168 19.275 44.7835 25.8 44.7835 33.85C44.7835 33.85 42.6493 37.475 37.1004 37.65Z" fill="#7289DA"/>
</svg>
