<svg width="60" height="60" viewBox="0 0 60 60" fill="none" xmlns="http://www.w3.org/2000/svg">
<path d="M8 29.5V52H30.5H53V29.5V7H30.5H8V29.5ZM42.9219 21.4531C42.9219 21.6719 42.9062 21.6875 42.6094 21.6875C42.2344 21.6875 42.1406 21.8281 42.1406 22.3828V22.7812H42.4922C42.8125 22.7812 42.8438 22.7969 42.8438 22.9766C42.8438 23.1562 42.8125 23.1719 42.4922 23.1719H42.1406V24.5V25.8281H41.8672H41.5938V24.5V23.1719H41.3203C41.0781 23.1719 41.0469 23.1484 41.0469 22.9766C41.0469 22.8047 41.0781 22.7812 41.3203 22.7812H41.5938V22.3906C41.5938 21.6875 42.0078 21.2188 42.6328 21.2188C42.9062 21.2188 42.9219 21.2344 42.9219 21.4531ZM25.6406 21.4688C25.7656 21.5938 25.7578 21.7266 25.6094 21.875C25.4297 22.0625 25.1953 22.0312 25.0938 21.8047C25.0312 21.6562 25.0312 21.5859 25.1094 21.4922C25.2266 21.3516 25.5078 21.3359 25.6406 21.4688ZM21.0391 23.0938C21.4062 23.9375 21.75 24.7031 21.7891 24.7969C21.8594 24.9531 21.9609 24.7656 22.6406 23.2578L23.4141 21.5312H23.7578H24.0938V23.6797V25.8281H23.8203H23.5469V24.0859V22.3516L22.7812 24.0703C22.1875 25.4062 21.9844 25.7969 21.8672 25.8125C21.7344 25.8281 21.5938 25.5781 20.9531 24.1328L20.1875 22.4297V24.125V25.8281H19.9141H19.6406V23.6719V21.5234L20.0078 21.5469L20.375 21.5703L21.0391 23.0938ZM44.4062 22.7812C44.7734 22.7812 44.7969 22.7969 44.7969 22.9766C44.7969 23.1562 44.7734 23.1719 44.4062 23.1719H44.0156V24.2109C44.0156 25.1562 44.0312 25.2734 44.1719 25.3984C44.2812 25.5 44.3906 25.5234 44.5625 25.4844C44.7891 25.4453 44.8047 25.4531 44.7812 25.6562C44.7578 25.8516 44.7266 25.8672 44.3906 25.8906C43.625 25.9375 43.4688 25.6562 43.4688 24.1875V23.1719H43.1953C42.9531 23.1719 42.9219 23.1484 42.9219 22.9766C42.9219 22.8047 42.9531 22.7812 43.1953 22.7812H43.4688V22.3984C43.4688 22.0391 43.4844 22.0156 43.7266 21.9531L43.9766 21.875L44 22.3281L44.0234 22.7812H44.4062ZM28.5312 22.75C28.6641 22.7891 28.7031 22.8516 28.7031 23.0703C28.7031 23.3047 28.6797 23.3359 28.5703 23.2891C28.0156 23.0625 27.5312 23.1016 27.2734 23.3906C27.0859 23.6016 26.9062 24.0703 26.9062 24.3594C26.9141 24.7812 27.1641 25.2344 27.4766 25.3828C27.8125 25.5469 28 25.5469 28.3672 25.3984C28.7188 25.25 28.7031 25.2422 28.7031 25.5C28.7031 25.7891 28.4609 25.9062 27.8672 25.9062C27.5781 25.9062 27.3438 25.8516 27.1484 25.7422C26.1172 25.1641 26.1641 23.3984 27.2344 22.8672C27.5703 22.7031 28.1484 22.6484 28.5312 22.75ZM31.0469 22.9766C31.0469 23.2344 31.0391 23.2422 30.8125 23.2031C30.6562 23.1719 30.5078 23.1953 30.375 23.2891C30.0469 23.5078 29.9531 23.8438 29.9531 24.8906V25.8281H29.6797H29.4062V24.3047V22.7812H29.6797C29.9297 22.7812 29.9531 22.8047 29.9531 23.0078V23.2344L30.2188 22.9688C30.4219 22.7656 30.5469 22.7031 30.7656 22.7031C31.0312 22.7031 31.0469 22.7188 31.0469 22.9766ZM33.5703 22.8125C34.1328 23.0469 34.4453 23.6641 34.3906 24.4609C34.3359 25.3672 33.7656 25.9062 32.8828 25.9062C31.8984 25.9062 31.2734 25.1797 31.3828 24.1484C31.4453 23.5 31.75 23.0469 32.2578 22.8125C32.5625 22.6797 33.25 22.6719 33.5703 22.8125ZM36.7031 22.7812C36.8594 22.8359 36.9062 22.9062 36.9062 23.1016C36.9062 23.3047 36.8828 23.3359 36.7734 23.2891C36.3516 23.1172 36.0547 23.0781 35.8438 23.1875C35.5547 23.3281 35.4375 23.5234 35.5469 23.6953C35.5859 23.7734 35.8906 23.9688 36.2109 24.1328C36.8828 24.4688 37.1094 24.75 37.0312 25.1562C36.9453 25.625 36.5 25.9062 35.8594 25.9062C35.2188 25.9062 35.0312 25.8125 35.0312 25.4844V25.2188L35.2812 25.3438C35.5938 25.5 36.2109 25.5156 36.3828 25.3672C36.5547 25.2344 36.5547 24.9375 36.3906 24.8047C36.3203 24.7422 36.0078 24.5703 35.7031 24.4219C35.2188 24.1797 35.1328 24.1094 35.0469 23.8438C34.9609 23.5781 34.9688 23.5078 35.0859 23.2656C35.1641 23.1094 35.3516 22.9219 35.5 22.8438C35.7969 22.6875 36.3828 22.6562 36.7031 22.7812ZM40.0469 22.9531C40.4531 23.2656 40.6172 23.6562 40.6094 24.3047C40.6094 24.9062 40.5 25.1875 40.1328 25.5312C39.8438 25.8047 39.5625 25.9062 39.0938 25.9062C38.4219 25.9062 38.0234 25.6562 37.7578 25.0859C37.4922 24.5078 37.6016 23.5781 37.9844 23.1406C38.4141 22.6562 39.5312 22.5547 40.0469 22.9531ZM25.6562 24.3047V25.8281H25.3828H25.1094V24.3047V22.7812H25.3828H25.6562V24.3047ZM24.0938 31.4297C25.6172 33.8203 26.9766 35.9453 27.1016 36.1562L27.3359 36.5234V31.8203V27.1172L27.9844 27.0938L28.625 27.0703V32.7031V38.3281H27.8281L27.0234 38.3203L24.1328 33.8281C22.5469 31.3594 21.1719 29.2031 21.0859 29.0312L20.9297 28.7266L20.9531 33.5234L20.9766 38.3281H20.3047H19.6406V32.7031V27.0781H20.4844H21.3203L24.0938 31.4297ZM37.2969 27.7031V28.3281H35.1094H32.9219V30.1641V32H34.9531H36.9844V32.625V33.25H34.9531H32.9219V35.2031V37.1562H35.2266H37.5312V37.7422V38.3281H34.5625H31.5938V32.7031V27.0781H34.4453H37.2969V27.7031ZM46.3438 27.7188L46.3672 28.3281H44.7188H43.0781V33.3281V38.3281H42.4141H41.75V33.3281V28.3281H40.1484H38.5469V27.7031V27.0781L42.4375 27.0938L46.3203 27.1172L46.3438 27.7188ZM16.8906 36.8672C17.1328 36.9844 17.2969 37.3125 17.2969 37.6719C17.2969 38.0938 16.8828 38.4844 16.4375 38.4844C16.1719 38.4844 16.0625 38.4375 15.8438 38.2188C15.6328 38.0078 15.5781 37.8906 15.5781 37.6484C15.5781 36.9297 16.2266 36.5469 16.8906 36.8672Z" fill="#682A7B"/>
<path d="M32.6503 23.1486C32.0253 23.3127 31.705 24.2424 32.0331 24.9455C32.205 25.2971 32.4628 25.4611 32.8768 25.4689C33.3065 25.4768 33.5878 25.3283 33.744 25.008C33.8847 24.7033 33.9003 23.9143 33.7597 23.6486C33.58 23.2893 33.0487 23.0471 32.6503 23.1486Z" fill="#682A7B"/>
<path d="M38.7821 23.1953C38.6258 23.25 38.4383 23.4063 38.329 23.5625C38.1649 23.8047 38.1493 23.9063 38.1727 24.4141C38.1961 24.9375 38.2196 25 38.4461 25.211C39.1649 25.8516 40.1102 25.3516 40.1102 24.3203C40.1102 23.4297 39.5243 22.9375 38.7821 23.1953Z" fill="#682A7B"/>
</svg>
