<svg width="60" height="60" viewBox="0 0 60 60" fill="none" xmlns="http://www.w3.org/2000/svg">
<g clip-path="url(#clip0_5227_9580)">
<path fill-rule="evenodd" clip-rule="evenodd" d="M4.52734 25.7827C4.41016 25.7827 4.38086 25.7241 4.43945 25.6362L5.05469 24.8452C5.11328 24.7573 5.25977 24.6987 5.37695 24.6987H15.8066C15.9238 24.6987 15.9531 24.7866 15.8945 24.8745L15.3965 25.6362C15.3379 25.7241 15.1914 25.812 15.1035 25.812L4.52734 25.7827Z" fill="#00ACD7"/>
<path fill-rule="evenodd" clip-rule="evenodd" d="M0.117187 28.4731C0 28.4731 -0.0292969 28.4146 0.0292969 28.3267L0.644531 27.5356C0.703125 27.4478 0.849609 27.3892 0.966797 27.3892H14.2871C14.4043 27.3892 14.4629 27.4771 14.4336 27.5649L14.1992 28.2681C14.1699 28.3853 14.0527 28.4438 13.9355 28.4438L0.117187 28.4731Z" fill="#00ACD7"/>
<path fill-rule="evenodd" clip-rule="evenodd" d="M7.1875 31.1587C7.07031 31.1587 7.04102 31.0708 7.09961 30.9829L7.50977 30.2505C7.56836 30.1626 7.68555 30.0747 7.80273 30.0747H13.6475C13.7646 30.0747 13.8232 30.1626 13.8232 30.2798L13.7646 30.9829C13.7646 31.1001 13.6475 31.188 13.5596 31.188L7.1875 31.1587Z" fill="#00ACD7"/>
<path fill-rule="evenodd" clip-rule="evenodd" d="M37.5083 25.2553C35.6675 25.724 34.4126 26.0756 32.6011 26.5395C32.1617 26.6567 32.1324 26.6859 31.7515 26.2465C31.312 25.7484 30.9898 25.4311 30.3794 25.1381C28.5386 24.2348 26.7564 24.4936 25.0913 25.5775C23.104 26.8617 22.0835 28.7611 22.1128 31.1293C22.1421 33.4682 23.7486 35.392 26.0581 35.7143C28.0454 35.9779 29.7105 35.2748 31.024 33.7856C31.2876 33.4633 31.522 33.1117 31.815 32.7065C30.7652 32.7065 29.4468 32.7065 26.1753 32.7065C25.5601 32.7065 25.4136 32.3256 25.6187 31.8324C25.9995 30.9291 26.6978 29.4057 27.1079 28.6488C27.1958 28.4731 27.4009 28.1801 27.8404 28.1801H38.4751C38.4165 28.9711 38.4165 29.7572 38.2994 30.5483C37.9771 32.6527 37.191 34.5815 35.9019 36.2758C33.7974 39.0492 31.0533 40.7729 27.5767 41.2416C24.7154 41.6225 22.0542 41.0658 19.7203 39.3129C17.5572 37.6772 16.3316 35.5141 16.0093 32.8285C15.6285 29.6449 16.566 26.7836 18.4947 24.269C20.5699 21.5541 23.314 19.8305 26.6734 19.2152C29.4175 18.7172 32.0494 19.0395 34.4126 20.6459C35.9605 21.6664 37.0689 23.0727 37.8013 24.767C37.9771 25.0258 37.8599 25.1674 37.5083 25.2553Z" fill="#00ACD7"/>
<path d="M47.1769 41.4127C44.5206 41.3541 42.0939 40.5924 40.048 38.8444C38.3243 37.3551 37.2452 35.4557 36.8937 33.2047C36.3663 29.9039 37.2745 26.984 39.2618 24.3815C41.3956 21.5787 43.964 20.1188 47.4405 19.5035C50.4191 18.9762 53.2267 19.2692 55.7657 20.9928C58.0753 22.5699 59.506 24.7037 59.8868 27.5065C60.3849 31.4518 59.2423 34.6647 56.5275 37.4088C54.5987 39.3668 52.2355 40.5924 49.5157 41.1491C48.7247 41.2955 47.9386 41.3248 47.1769 41.4127ZM54.13 29.611C54.1007 29.2301 54.1007 28.9371 54.0421 28.649C53.5148 25.7584 50.8585 24.1227 48.0802 24.7623C45.3654 25.3776 43.6124 27.1012 42.9679 29.8453C42.4405 32.1256 43.5538 34.4303 45.6534 35.3678C47.2599 36.0709 48.8663 35.983 50.4142 35.192C52.7286 33.9908 53.9835 32.1207 54.13 29.611Z" fill="#00ACD7"/>
</g>
<defs>
<clipPath id="clip0_5227_9580">
<rect width="60" height="60" fill="white"/>
</clipPath>
</defs>
</svg>
