<svg width="60" height="60" viewBox="0 0 60 60" fill="none" xmlns="http://www.w3.org/2000/svg">
<path d="M8.78006 46.1266L10.9851 49.9193C11.4433 50.7178 12.1019 51.3451 12.8751 51.8014L20.7503 38.2275H5C5 39.1116 5.22909 39.9956 5.68728 40.794L8.78006 46.1266Z" fill="#0066DA"/>
<path d="M30 22.2584L22.1248 8.68457C21.3516 9.14083 20.693 9.7682 20.2348 10.5667L5.68728 35.6612C5.23752 36.4424 5.0006 37.3272 5 38.2277H20.7503L30 22.2584Z" fill="#00AC47"/>
<path d="M47.1263 51.8014C47.8995 51.3451 48.5581 50.7178 49.0163 49.9193L49.9327 48.3509L54.3141 40.794C54.7723 39.9956 55.0014 39.1116 55.0014 38.2275H39.25L42.6017 44.7863L47.1263 51.8014Z" fill="#EA4335"/>
<path d="M30.0001 22.2583L37.8753 8.6844C37.1021 8.22813 36.2143 8 35.298 8H24.7023C23.7859 8 22.8982 8.25665 22.125 8.6844L30.0001 22.2583Z" fill="#00832D"/>
<path d="M39.2495 38.2275H20.7501L12.875 51.8014C13.6482 52.2577 14.5359 52.4858 15.4523 52.4858H44.5473C45.4637 52.4858 46.3515 52.2292 47.1247 51.8014L39.2495 38.2275Z" fill="#2684FC"/>
<path d="M47.0389 23.1139L39.7652 10.5667C39.307 9.7682 38.6483 9.14083 37.8751 8.68457L30 22.2584L39.2497 38.2277H54.9713C54.9713 37.3437 54.7422 36.4597 54.284 35.6612L47.0389 23.1139Z" fill="#FFBA00"/>
</svg>
