<svg width="60" height="60" viewBox="0 0 60 60" fill="none" xmlns="http://www.w3.org/2000/svg">
<path d="M30.5073 8C21.1138 8 18.3666 8.00965 17.8325 8.05378C15.9048 8.21341 14.7053 8.51577 13.3984 9.16394C12.3913 9.66213 11.5971 10.2396 10.8132 11.0491C9.38555 12.5254 8.52033 14.3417 8.20711 16.5006C8.05484 17.5487 8.01054 17.7624 8.00154 23.116C7.99808 24.9005 8.00154 27.2491 8.00154 30.3992C8.00154 39.7493 8.01192 42.4833 8.05691 43.0143C8.21265 44.8829 8.50683 46.0586 9.12979 47.3446C10.3203 49.8062 12.5941 51.6542 15.2729 52.3437C16.2004 52.5816 17.2248 52.7126 18.5399 52.7747C19.0971 52.7988 24.7765 52.816 30.4592 52.816C36.142 52.816 41.8248 52.8091 42.3682 52.7816C43.8909 52.7102 44.7752 52.5919 45.7529 52.3402C47.0811 52.0009 48.319 51.3769 49.38 50.5116C50.4411 49.6464 51.2997 48.5608 51.896 47.3308C52.5068 46.0758 52.8166 44.8553 52.9567 43.0843C52.9872 42.6981 53 36.5416 53 30.3934C53 24.2441 52.9862 18.0989 52.9557 17.7128C52.8138 15.9131 52.5041 14.703 51.8735 13.4239C51.3561 12.3768 50.7816 11.5949 49.9475 10.7954C48.4593 9.37907 46.6389 8.51715 44.4693 8.20548C43.4182 8.05413 43.2088 8.00931 37.8306 8H30.5073Z" fill="url(#paint0_radial_4948_3216)"/>
<path d="M30.5073 8C21.1138 8 18.3666 8.00965 17.8325 8.05378C15.9048 8.21341 14.7053 8.51577 13.3984 9.16394C12.3913 9.66213 11.5971 10.2396 10.8132 11.0491C9.38555 12.5254 8.52033 14.3417 8.20711 16.5006C8.05484 17.5487 8.01054 17.7624 8.00154 23.116C7.99808 24.9005 8.00154 27.2491 8.00154 30.3992C8.00154 39.7493 8.01192 42.4833 8.05691 43.0143C8.21265 44.8829 8.50683 46.0586 9.12979 47.3446C10.3203 49.8062 12.5941 51.6542 15.2729 52.3437C16.2004 52.5816 17.2248 52.7126 18.5399 52.7747C19.0971 52.7988 24.7765 52.816 30.4592 52.816C36.142 52.816 41.8248 52.8091 42.3682 52.7816C43.8909 52.7102 44.7752 52.5919 45.7529 52.3402C47.0811 52.0009 48.319 51.3769 49.38 50.5116C50.4411 49.6464 51.2997 48.5608 51.896 47.3308C52.5068 46.0758 52.8166 44.8553 52.9567 43.0843C52.9872 42.6981 53 36.5416 53 30.3934C53 24.2441 52.9862 18.0989 52.9557 17.7128C52.8138 15.9131 52.5041 14.703 51.8735 13.4239C51.3561 12.3768 50.7816 11.5949 49.9475 10.7954C48.4593 9.37907 46.6389 8.51715 44.4693 8.20548C43.4182 8.05413 43.2088 8.00931 37.8306 8H30.5073Z" fill="url(#paint1_radial_4948_3216)"/>
<path d="M30.5 13.8608C25.9884 13.8608 25.4222 13.8805 23.6502 13.9608C21.8817 14.0415 20.6746 14.3204 19.6183 14.7297C18.5257 15.1523 17.5989 15.7178 16.6755 16.6379C15.7514 17.5578 15.1839 18.4811 14.7582 19.5692C14.3463 20.6217 14.066 21.8246 13.9864 23.5857C13.9075 25.3509 13.8867 25.9153 13.8867 30.4097C13.8867 34.9041 13.9068 35.4664 13.9871 37.2316C14.0684 38.9934 14.3484 40.1959 14.7589 41.2482C15.1835 42.3366 15.7511 43.2599 16.6748 44.1797C17.5978 45.1003 18.5247 45.6671 19.6166 46.0897C20.6735 46.499 21.881 46.7779 23.6492 46.8586C25.4212 46.9389 25.987 46.9586 30.4983 46.9586C35.0102 46.9586 35.5747 46.9389 37.3467 46.8586C39.1152 46.7779 40.3238 46.499 41.3807 46.0897C42.473 45.6671 43.3984 45.1003 44.3214 44.1797C45.2455 43.2599 45.8131 42.3366 46.2388 41.2485C46.6471 40.1959 46.9275 38.993 47.0105 37.232C47.0901 35.4668 47.1109 34.9041 47.1109 30.4097C47.1109 25.9153 47.0901 25.3513 47.0105 23.5861C46.9275 21.8243 46.6471 20.6217 46.2388 19.5695C45.8131 18.4811 45.2455 17.5578 44.3214 16.6379C43.3974 15.7174 42.4733 15.152 41.3797 14.7297C40.3206 14.3204 39.1128 14.0415 37.3443 13.9608C35.5723 13.8805 35.0082 13.8608 30.4952 13.8608H30.5ZM29.0098 16.8431C29.4521 16.8424 29.9456 16.8431 30.5 16.8431C34.9355 16.8431 35.4612 16.8589 37.2128 16.9382C38.8325 17.012 39.7115 17.2816 40.2971 17.5081C41.0723 17.8081 41.625 18.1666 42.2061 18.7459C42.7876 19.3251 43.1475 19.8767 43.4493 20.649C43.6767 21.2316 43.9476 22.1073 44.0214 23.7209C44.101 25.4654 44.1183 25.9894 44.1183 30.4059C44.1183 34.8224 44.101 35.3464 44.0214 37.091C43.9473 38.7045 43.6767 39.5802 43.4493 40.1628C43.1482 40.9351 42.7876 41.485 42.2061 42.0639C41.6247 42.6431 41.0727 43.0017 40.2971 43.3016C39.7122 43.5291 38.8325 43.7981 37.2128 43.8718C35.4615 43.9511 34.9355 43.9684 30.5 43.9684C26.0642 43.9684 25.5385 43.9511 23.7873 43.8718C22.1676 43.7974 21.2885 43.5278 20.7026 43.3013C19.9274 43.0013 19.3736 42.6427 18.7922 42.0635C18.2108 41.4843 17.8508 40.9341 17.549 40.1615C17.3217 39.5788 17.0507 38.7031 16.9769 37.0896C16.8973 35.345 16.8814 34.821 16.8814 30.4018C16.8814 25.9825 16.8973 25.4612 16.9769 23.7167C17.051 22.1032 17.3217 21.2275 17.549 20.6441C17.8501 19.8719 18.2108 19.3202 18.7922 18.741C19.3736 18.1618 19.9274 17.8033 20.7026 17.5026C21.2882 17.2751 22.1676 17.0062 23.7873 16.932C25.3198 16.8631 25.9137 16.8424 29.0098 16.8389V16.8431ZM39.3675 19.5909C38.9732 19.5909 38.5878 19.7074 38.2599 19.9256C37.9321 20.1438 37.6766 20.454 37.5257 20.8169C37.3749 21.1799 37.3354 21.5792 37.4124 21.9644C37.4894 22.3497 37.6793 22.7035 37.9582 22.9812C38.237 23.2589 38.5923 23.448 38.979 23.5245C39.3658 23.6011 39.7666 23.5617 40.1309 23.4112C40.4951 23.2608 40.8064 23.0062 41.0254 22.6795C41.2443 22.3529 41.3611 21.9688 41.361 21.5761C41.361 20.4797 40.4681 19.5902 39.3675 19.5902V19.5909ZM30.5 21.9112C25.7887 21.9112 21.9689 25.7164 21.9689 30.4097C21.9689 35.103 25.7887 38.9065 30.5 38.9065C35.2113 38.9065 39.0301 35.103 39.0301 30.4097C39.0301 25.7164 35.211 21.9112 30.4997 21.9112H30.5ZM30.5 24.8934C33.5581 24.8934 36.0374 27.363 36.0374 30.4097C36.0374 33.4561 33.5581 35.926 30.5 35.926C27.4416 35.926 24.9626 33.4561 24.9626 30.4097C24.9626 27.363 27.4416 24.8934 30.5 24.8934V24.8934Z" fill="white"/>
<defs>
<radialGradient id="paint0_radial_4948_3216" cx="0" cy="0" r="1" gradientUnits="userSpaceOnUse" gradientTransform="translate(19.9532 56.2678) rotate(-90) scale(44.416 41.4799)">
<stop stop-color="#FFDD55"/>
<stop offset="0.1" stop-color="#FFDD55"/>
<stop offset="0.5" stop-color="#FF543E"/>
<stop offset="1" stop-color="#C837AB"/>
</radialGradient>
<radialGradient id="paint1_radial_4948_3216" cx="0" cy="0" r="1" gradientUnits="userSpaceOnUse" gradientTransform="translate(0.462262 11.2285) rotate(78.6354) scale(19.8573 82.1625)">
<stop stop-color="#3771C8"/>
<stop offset="0.128" stop-color="#3771C8"/>
<stop offset="1" stop-color="#6600FF" stop-opacity="0"/>
</radialGradient>
</defs>
</svg>
