<?xml version="1.0" standalone="no"?>
<!DOCTYPE svg PUBLIC "-//W3C//DTD SVG 20010904//EN"
 "http://www.w3.org/TR/2001/REC-SVG-20010904/DTD/svg10.dtd">
<svg version="1.0" xmlns="http://www.w3.org/2000/svg"
 width="265.000000pt" height="300.000000pt" viewBox="0 0 265.000000 300.000000"
 preserveAspectRatio="xMidYMid meet">

<g transform="translate(0.000000,300.000000) scale(0.100000,-0.100000)"
fill="#000000" stroke="none">
<path d="M1281 2989 c-429 -84 -1051 -626 -1232 -1075 -25 -61 -33 -98 -37
-165 -6 -117 6 -149 91 -236 l70 -72 -24 -63 c-19 -50 -24 -81 -23 -153 1
-118 26 -184 100 -265 63 -68 121 -105 194 -123 l52 -14 37 -89 c88 -214 214
-371 406 -506 297 -210 662 -273 975 -168 280 94 544 320 675 580 15 30 38 67
51 83 52 62 37 172 -29 203 -33 16 -35 19 -40 82 -6 57 -4 69 13 87 31 33 41
81 29 130 -8 32 -31 63 -102 136 -51 52 -118 111 -150 132 l-58 38 3 187 3
187 -38 85 c-20 47 -50 111 -66 143 -16 31 -25 60 -21 62 18 11 121 156 153
216 123 225 76 409 -121 481 -102 37 -305 17 -464 -47 l-64 -25 -79 79 c-71
70 -86 80 -133 90 -60 13 -108 13 -171 0z m153 -75 c11 -4 13 -11 5 -31 -9
-24 -13 -83 -5 -83 2 0 12 -3 21 -6 14 -6 16 0 10 53 l-7 60 28 6 c31 7 47 -7
139 -115 l40 -47 90 34 c125 47 242 69 327 62 37 -3 76 -10 85 -16 13 -7 4 -9
-33 -4 -106 12 -261 -32 -469 -131 -277 -133 -507 -302 -809 -596 -199 -192
-170 -151 46 68 169 171 317 301 446 390 42 29 77 57 77 63 0 12 -177 218
-187 218 -13 1 -9 -62 8 -144 11 -55 13 -79 5 -84 -212 -119 -348 -220 -515
-381 l-121 -118 -94 115 -94 115 84 85 c220 222 524 418 731 473 72 19 162 25
192 14z m727 -925 c12 -12 30 -42 41 -67 19 -43 20 -58 14 -222 -4 -96 -4
-183 -1 -193 4 -9 41 -41 84 -71 93 -66 220 -197 227 -234 4 -24 -3 -33 -58
-74 -119 -88 -229 -141 -371 -180 -74 -21 -105 -23 -303 -23 -208 0 -223 -1
-244 -20 -81 -73 -61 -217 37 -272 67 -38 147 -53 279 -53 102 0 141 5 240 30
151 38 268 94 339 161 67 64 72 82 8 33 -114 -87 -315 -165 -475 -185 -288
-35 -485 58 -436 206 21 62 49 76 138 65 244 -30 508 21 693 132 57 34 84 45
91 38 6 -6 12 -36 13 -66 1 -66 19 -114 42 -114 9 0 27 -7 39 -16 32 -22 28
-65 -10 -124 -18 -27 -51 -79 -73 -115 -47 -78 -167 -196 -248 -244 -217 -128
-487 -156 -645 -66 -39 22 -41 23 -31 4 20 -38 2 -30 -45 21 -31 33 -45 43
-41 29 11 -34 -11 -14 -41 37 -26 44 -47 56 -24 14 21 -39 2 -33 -25 8 -34 51
-61 124 -70 187 -10 69 -24 91 -25 40 0 -27 -3 -35 -9 -25 -11 18 -20 75 -26
159 -5 68 -15 96 -15 43 0 -18 -4 -32 -10 -32 -13 0 -13 75 1 123 15 55 3 58
-20 6 l-20 -44 0 41 c-1 53 39 133 91 180 23 20 76 53 118 73 l78 36 -62 29
c-83 39 -167 126 -196 203 -32 85 -25 194 17 285 36 77 105 151 166 178 56 26
168 26 272 0 144 -36 202 -27 312 48 70 47 78 50 126 51 25 1 44 -6 58 -20z
m-1512 -580 c17 -6 31 -14 31 -17 0 -4 -8 -29 -19 -57 -10 -27 -22 -66 -26
-85 l-8 -35 21 25 c26 30 25 33 7 -63 -18 -96 -18 -95 -1 -72 13 18 14 17 21
-15 10 -44 -12 -60 -79 -60 -111 0 -196 81 -196 186 0 64 13 100 48 138 53 56
133 79 201 55z"/>
<path d="M1554 2748 c8 -52 9 -52 35 -38 l21 11 -26 34 c-15 19 -29 35 -31 35
-3 0 -3 -19 1 -42z"/>
<path d="M1446 2706 c43 -49 52 -52 79 -32 18 13 15 16 -43 45 -34 17 -64 31
-68 31 -4 0 11 -20 32 -44z"/>
<path d="M2050 1651 c-5 -11 -10 -38 -10 -60 0 -37 3 -41 24 -41 14 0 28 -4
31 -10 25 -41 34 38 11 95 -17 39 -40 45 -56 16z"/>
<path d="M1649 1574 c-17 -21 -18 -136 -1 -175 10 -26 12 -26 52 -15 l42 11
-4 67 c-5 96 -53 155 -89 112z"/>
<path d="M2107 1443 c-13 -12 -7 -43 8 -43 9 0 15 9 15 25 0 24 -10 32 -23 18z"/>
<path d="M1940 1412 c0 -10 5 -23 12 -30 7 -7 20 -12 30 -12 24 0 23 36 -1 50
-29 15 -41 12 -41 -8z"/>
<path d="M2472 358 c-18 -18 -15 -54 6 -69 14 -11 15 -11 5 1 -16 18 -17 52
-1 68 7 7 10 12 7 12 -3 0 -10 -5 -17 -12z"/>
<path d="M2534 354 c9 -8 16 -22 16 -29 0 -7 -7 -21 -16 -29 -8 -9 -11 -16 -5
-16 6 0 15 10 22 21 12 24 -2 69 -21 69 -7 0 -4 -7 4 -16z"/>
<path d="M2484 335 c-3 -8 -3 -19 1 -25 8 -13 45 -13 45 0 0 5 -7 7 -15 4 -9
-4 -15 0 -15 9 0 9 8 18 18 20 12 4 11 5 -6 6 -12 0 -25 -6 -28 -14z"/>
</g>
</svg>
