<svg width="60" height="60" viewBox="0 0 60 60" fill="none" xmlns="http://www.w3.org/2000/svg">
<path d="M47.3959 48.6043V49.3053H47.5907V48.7991L47.7498 49.3053H47.9159L48.0751 48.7978V49.3053H48.2699V48.6043H47.9653L47.8337 49.0078L47.7002 48.6043H47.3959ZM46.8983 48.7724V49.3053H47.112V48.7724H47.3304V48.6043H46.6827V48.7724H46.8983ZM52.2981 39.1565C52.2615 39.2712 48.7946 52.0038 35.1732 52C23.3983 51.9966 17.8172 42.2172 17.8172 42.2172C16.959 42.2629 16.131 42.1326 15.3673 41.8645C11.9127 40.6519 10.2552 36.8755 11.447 33.7072L9.5484 32.3207C2.19351 26.9673 23.0285 2.46962 30.3961 8.01296C30.4335 8.04096 32.1549 9.36493 32.1549 9.36493C34.8003 7.82985 37.4201 7.00011 39.5498 7C41.0622 6.99989 42.3269 7.41826 43.1787 8.29959C45.0911 10.278 44.4037 14.0558 41.7925 17.8808C42.3542 18.3902 42.8197 19.0827 43.1519 19.7701C43.982 20.3822 44.5201 21.3125 44.7874 22.5976C45.0852 24.0265 45.1468 26.0618 45.3337 26.9364C46.0379 27.2401 45.7379 27.0996 46.4887 27.4579C47.2715 27.8318 48.2248 28.2869 49.2783 29.2555C51.1509 29.7038 51.8659 31.6062 50.7701 32.9045C50.7408 32.9394 50.6085 33.089 50.4714 33.2381C50.5043 33.3205 50.8633 33.8766 51.1225 35.0085C51.8985 35.1836 52.5167 35.6401 52.841 36.302C53.4021 37.5977 52.2981 39.1565 52.2981 39.1565" fill="#61423F"/>
<path d="M46.5239 44.7537C50.2179 41.9804 50.8633 38.6403 50.9249 38.5251C51.8338 37.4835 51.5868 36.4572 50.3859 36.4571C50.0038 36.4571 49.7153 36.5534 49.7153 36.5534C49.7153 36.5534 49.7197 35.0335 48.9838 33.8496C48.4165 34.4592 46.842 35.6668 44.7759 36.604C42.8384 37.4829 40.2531 38.2526 37.0493 38.3546H37.0492C36.1521 38.3918 35.5972 38.2523 35.2847 39.2516C35.185 39.6046 35.2281 40.1291 35.3031 40.2807C35.5558 41.1084 36.216 41.4733 37.0852 41.6664C37.7443 41.8131 38.4442 41.8268 38.4442 41.8268C44.9417 42.001 50.1593 37.1588 50.2217 37.1185C50.2819 37.0714 50.3319 37.0154 50.3319 37.0154C50.3319 37.0154 50.2746 37.1438 50.2678 37.1583C49.3293 39.1749 43.8956 42.8319 38.4869 42.7273L38.4692 42.7332C37.2149 42.7287 35.6908 42.4202 34.8985 41.4814C33.6449 39.9961 34.2955 37.5264 36.2933 37.4686C36.2959 37.4685 36.7553 37.4583 36.9598 37.4534C41.9066 37.3081 46.3452 35.5715 49.5233 31.9451C49.9604 31.4264 49.4722 30.7139 48.5251 30.6922C48.5168 30.692 48.5087 30.6885 48.5031 30.6827C47.38 29.5339 46.393 29.128 45.5147 28.7015C43.6737 27.8054 43.847 28.5794 43.4187 24.2326C43.3029 23.0607 43.0707 21.4625 41.9932 20.8498C41.7107 20.6891 41.402 20.6202 41.0815 20.6202C40.7648 20.6202 40.6105 20.682 40.5482 20.6952C39.9581 20.8201 39.6224 21.1398 39.2021 21.5102C37.2156 23.2605 35.6278 22.7854 33.2579 22.7653C31.0321 22.7468 29.0669 24.2303 28.691 26.5086L28.6904 26.5098C28.5077 27.7024 28.626 28.9142 28.8215 29.4589C28.8215 29.4589 28.2174 29.0749 27.9295 28.7349C28.2779 30.8162 30.2653 32.1765 30.2653 32.1765C29.9522 32.2452 29.5019 32.2168 29.5019 32.2168C29.5038 32.2182 30.6362 33.0739 31.6191 33.3725C31.3631 33.5248 30.0676 34.7463 29.3995 36.4279C28.7742 38.0016 29.029 39.8907 29.029 39.8907L29.572 39.1173C29.572 39.1173 29.2173 40.841 29.9036 42.5102C30.1314 42.0135 30.6289 41.1271 30.6289 41.1271C30.6289 41.1271 30.5501 42.9782 31.4828 44.4939C31.5067 44.1441 31.6466 43.2535 31.6466 43.2535C31.6466 43.2535 32.1818 44.8338 33.418 45.9387C35.7324 47.9011 41.8601 48.2555 46.5239 44.7537V44.7537ZM20.5938 34.3653C20.8905 33.6448 21.0399 33.0536 21.0399 33.0536C21.3796 34.0456 21.5533 35.0889 21.4851 36.1435C21.7666 35.7855 22.0689 35.1115 22.0689 35.1115C22.5926 38.0574 20.3426 40.7542 17.3784 40.7542C14.7467 40.7542 12.6133 38.6081 12.6133 35.9609C12.6133 33.3136 14.7467 31.1676 17.3784 31.1676C18.0606 31.1676 18.7094 31.3117 19.2961 31.5716C19.2961 31.5715 20.309 32.0595 20.5938 34.3653" fill="#F5DAAF"/>
<path d="M12.1616 32.3584C12.1429 32.3535 10.3685 31.1094 10.1161 30.6997C8.6232 28.2924 11.2205 23.3482 13.0687 20.5377C17.6363 13.5919 25.2389 8.11047 28.6919 8.89325L32.238 10.6422C30.8611 11.4161 29.5295 12.3666 28.7316 12.9987L27.9771 13.6033C27.9771 13.6033 25.7737 15.0208 24.6778 15.9144C20.2846 19.4963 15.9591 25.0413 14.355 30.3937C14.355 30.3936 13.0371 31.0186 12.1616 32.3584" fill="#3A87C6"/>
<path d="M28.6897 8.89341C25.2365 8.11063 17.634 13.5921 13.0665 20.5379C13.0651 20.5399 13.0638 20.5419 13.0625 20.544L13.081 20.5459L16.7205 23.2837C20.7166 17.2226 25.7391 14.0973 25.8808 14.0055L25.3037 10.2958L26.3846 9.80127L28.5543 10.4726L28.3883 9.78004L28.6897 8.89341" fill="#60BEE8"/>
<path d="M32.2368 10.6427L28.7305 12.9992L28.4852 13.1826L25.376 10.7553L25.3047 10.2963L26.3857 9.80168C26.4411 9.81884 28.4696 10.4465 28.5552 10.473L28.5914 9.18598L28.6908 8.89382L29.6404 8.54601C29.6417 8.54703 32.2331 10.6398 32.2368 10.6427" fill="#FBCF34"/>
<path d="M39.1572 8.33155C36.8385 8.33155 34.2352 9.49679 32.2383 10.6425C31.9581 10.8 31.6802 10.9648 31.4079 11.1328L30.363 10.2959L30.7426 11.5561C30.5991 11.6503 30.4589 11.7442 30.3219 11.8375L28.1629 11.2076L29.5914 12.3503C29.2653 12.5865 28.974 12.8075 28.7321 12.9991L25.3063 10.2962L25.4877 11.5075L27.9776 13.6038C27.9776 13.6038 25.7741 15.0212 24.6783 15.9148C20.2851 19.4967 15.9596 25.0417 14.3555 30.394L14.4467 30.345C14.459 30.3385 14.4715 30.3331 14.4839 30.3266C14.5285 30.3036 14.5731 30.2817 14.6177 30.2603C14.6463 30.2465 14.6748 30.2326 14.7034 30.2195C14.7494 30.1984 14.7953 30.1789 14.8413 30.1596C14.8683 30.1481 14.8955 30.1361 14.9226 30.1253C14.9724 30.1054 15.022 30.0872 15.0718 30.0693C15.0948 30.061 15.1177 30.0518 15.1407 30.044C15.2131 30.0191 15.2854 29.9962 15.3573 29.9758C16.4479 29.665 17.9316 29.4651 19.6684 30.1698C20.5407 28.0677 21.5827 25.929 23.225 23.874C24.5565 22.2077 25.8363 20.7203 27.3726 19.9021C30.2814 17.2912 38.1213 14.5225 40.633 16.9225C41.2269 15.9941 41.7423 15.1153 42.1669 14.0137C43.2149 11.3646 43.2341 8.33155 39.1572 8.33155" fill="#181F2A"/>
<path d="M29.2048 10.6729L28.6921 8.89315L28.3906 9.77978L28.571 10.4768L29.2048 10.6729" fill="#181F2A"/>
<path d="M34.4866 9.49298C35.753 8.93508 37.1105 8.49424 38.4124 8.36713C37.1194 8.64517 35.5438 9.28571 33.677 10.3772C33.6315 10.4024 29.2597 13.2216 26.5888 15.7532C25.1332 17.1327 19.2884 23.8299 19.293 23.8242C20.3612 21.8926 21.065 20.9443 22.756 18.9123C23.7124 17.7629 24.7329 16.6452 25.7777 15.6132C26.1288 15.2663 26.4828 14.9291 26.838 14.6036C26.9734 14.4795 30.0277 11.4911 34.4866 9.49298V9.49298ZM49.7165 36.552C49.7165 36.552 49.721 35.0319 48.9851 33.8482C48.4178 34.4576 46.8432 35.6653 44.7772 36.6025C42.8397 37.4814 40.2544 38.2512 37.0505 38.3531C36.1534 38.3904 35.5985 38.2507 35.286 39.2502C35.2615 39.3363 35.2458 39.4327 35.2369 39.5314L35.2364 39.5414C35.2363 39.5414 35.2361 39.5414 35.236 39.5414C35.2333 39.5732 35.2313 39.6053 35.2299 39.6373C35.2267 39.7286 35.2278 39.8091 35.2314 39.8792C35.2315 39.881 35.2317 39.8826 35.2318 39.8844C35.2321 39.8896 35.2324 39.8946 35.2327 39.8996C35.2356 39.9435 35.2395 39.9856 35.2443 40.0253C35.2444 40.0272 35.2448 40.0293 35.245 40.0312C35.2452 40.0333 35.2455 40.0353 35.2458 40.0374C35.267 40.1962 35.2998 40.2699 35.304 40.2784C35.304 40.2787 35.3042 40.279 35.3043 40.2794L35.3085 40.2926C35.5642 41.1109 36.222 41.4729 37.0864 41.665C37.7455 41.8117 38.4455 41.8255 38.4455 41.8255C43.7469 41.9675 48.1963 38.7701 49.6886 37.5663C49.7141 37.229 49.7293 36.9883 49.7165 36.552" fill="white"/>
<path d="M19.0417 38.0009C19.043 38.0001 19.0443 37.9992 19.0456 37.9983C19.3269 37.7094 19.445 37.3056 19.3781 36.9194C19.2743 36.3638 18.6153 36.2516 18.1796 35.82C18.1727 35.8132 18.1658 35.8062 18.1591 35.7992C18.1518 35.7917 18.1446 35.7839 18.1377 35.7763C18.1372 35.7758 18.1367 35.7753 18.1362 35.7747C17.9405 35.5593 17.8723 35.3144 17.8882 35.0958C17.9227 34.5274 18.4509 34.3677 18.7259 34.4723C18.7259 34.4723 19.0519 34.546 19.3045 34.8826C19.3045 34.8826 19.3044 34.882 19.3043 34.8812C19.2659 34.7701 19.2738 34.5907 19.0761 34.3234C18.7522 33.8849 18.0083 33.4389 16.9537 33.6525H16.9539C16.7589 33.6919 16.8682 33.6696 16.6759 33.7213C16.6458 33.7294 16.6185 33.7374 16.5948 33.7468C16.5343 33.7739 16.4784 33.7924 16.4248 33.8197C16.397 33.8345 16.2385 33.9031 16.0479 34.0404C14.8624 35.5024 16.8702 38.154 19.0417 38.0009V38.0009ZM44.8932 38.4132C44.8796 38.4135 44.8655 38.4163 44.843 38.4212C44.3043 38.5404 38.7495 40.5966 35.2379 39.5426C35.2222 39.7262 35.2273 40.1119 35.3059 40.2797C35.306 40.2799 35.3062 40.2804 35.3064 40.2806C35.8375 40.3824 36.5098 40.4475 37.2902 40.4475C41.911 40.4475 45.241 38.4399 44.8932 38.4132V38.4132ZM44.2481 28.1083C43.7253 27.7498 43.7068 27.1245 43.4217 24.2325C43.3306 23.3101 43.1671 22.1236 42.5763 21.3614C42.4541 21.2595 42.2823 21.1423 42.0349 21.1423C41.6617 21.1265 41.2398 21.496 41.0007 21.7485C40.3218 22.6847 39.6733 23.2875 38.5262 23.81C37.3652 24.312 36.2619 24.4941 35.1165 24.4596C34.278 24.4343 33.5437 24.3023 32.824 24.2936C31.4903 24.2736 30.3345 24.6867 29.492 25.7032C28.9143 26.4001 28.6824 27.1371 28.6085 28.0142C28.6112 28.1199 28.6162 28.2196 28.6226 28.3134C28.6325 28.4528 28.6459 28.5858 28.6619 28.7106C28.7208 29.1552 28.8048 29.3858 28.8048 29.3858C28.8048 29.3892 28.8041 29.3926 28.8031 29.3958C28.8101 29.4176 28.8171 29.4386 28.8244 29.4585C28.8244 29.4585 28.2203 29.0746 27.9324 28.7347C28.2229 30.4697 29.6521 31.7037 30.1196 32.0662C30.1473 32.0864 30.1744 32.1065 30.2011 32.1267C30.2034 32.1284 30.2055 32.1304 30.2072 32.1326C30.2464 32.1613 30.268 32.1762 30.268 32.1762C29.955 32.245 29.5048 32.2166 29.5048 32.2166C29.5067 32.2181 30.639 33.0737 31.622 33.3723C32.9258 32.3194 34.4042 31.9152 35.6178 31.7898C36.3534 31.3537 37.1442 30.9253 37.9935 30.5121C37.7363 28.9821 39.1564 27.4413 40.9434 27.2934C42.2918 27.1996 42.9477 27.777 43.4201 28.3947C43.6764 28.3165 43.9655 28.231 44.2885 28.1402C44.275 28.1315 44.2614 28.1208 44.2481 28.1083V28.1083ZM34.3575 39.0141C34.5954 38.1683 35.267 37.4983 36.2964 37.4685C36.299 37.4684 36.7584 37.4582 36.9629 37.4533C41.9097 37.308 46.3483 35.5714 49.5264 31.945C49.9635 31.4263 49.4753 30.7138 48.5282 30.6921C48.5244 30.692 48.5146 30.6921 48.5146 30.6921C48.3546 30.8539 48.3258 31.1495 48.0608 31.5911C47.0942 33.196 45.7571 33.9297 43.9742 34.7812C38.5079 37.3815 35.6733 36.1715 34.5357 37.7636C34.2051 38.2321 34.1989 38.7555 34.3575 39.0141C34.3575 39.0141 34.3575 39.0142 34.3575 39.0141ZM42.279 28.653C41.5239 28.1399 40.2736 28.5482 39.9978 29.3972C40.4347 29.4184 40.8983 29.7341 40.8697 30.1382C41.1781 29.8529 41.6168 29.6919 42.0435 29.6993C41.8377 29.384 41.9417 28.8405 42.279 28.653ZM46.5271 44.7536C45.8929 45.2297 45.2318 45.6344 44.5569 45.9736C42.9959 45.4068 42.0381 44.199 42.0381 44.199C42.0381 44.199 43.3763 43.8967 45.1651 43.0276C47.3407 41.9713 49.3738 40.4451 50.9281 38.5249C50.8665 38.6401 50.221 41.9803 46.5271 44.7536" fill="#E8B77B"/>
<path d="M28.6197 19.1752C33.7493 15.9983 38.8732 15.6331 40.6288 16.9227C40.6289 16.9226 40.629 16.9225 40.6291 16.9223C40.6259 16.9138 40.5977 16.8394 40.5867 16.819C40.1409 15.9141 39.1009 15.2827 38.1745 15.0295C38.337 15.1908 38.5721 15.4861 38.6672 15.6615C37.968 15.2027 37.0389 14.7985 36.0691 14.6065C36.0691 14.6065 36.1847 14.6858 36.2044 14.7034C36.3978 14.8755 36.6549 15.1472 36.7602 15.3807C35.8334 15.0251 34.6619 14.8259 33.659 15.0104C33.6449 15.013 33.5336 15.0382 33.5336 15.0382C33.5336 15.0382 33.6642 15.0691 33.6932 15.0773C34.0258 15.1716 34.5004 15.3653 34.7095 15.6306C33.0447 15.3509 31.2133 15.6605 30.2256 16.1883C30.3527 16.1832 30.3514 16.1826 30.4588 16.1853C30.8223 16.1946 31.5542 16.2418 31.8615 16.4286C30.8114 16.6326 29.2917 17.0815 28.4736 17.7537C28.6181 17.7377 29.4378 17.6379 29.7732 17.6894C25.2703 20.1514 23.221 23.8738 23.221 23.8738C24.5486 22.2208 26.2708 20.6298 28.6197 19.1752ZM39.5326 29.6845C39.3836 29.9442 39.5651 30.3132 39.938 30.5085C40.3108 30.7036 40.7339 30.6514 40.8829 30.3915C41.0319 30.1316 40.8504 29.7627 40.4775 29.5675C40.1045 29.3723 39.6816 29.4247 39.5326 29.6845ZM42.5112 28.6483C42.24 28.6078 41.9734 28.8631 41.9153 29.2184C41.8572 29.5735 42.0301 29.8942 42.3011 29.9346C42.5723 29.975 42.8389 29.7199 42.8969 29.3647C42.9551 29.0094 42.7822 28.6887 42.5112 28.6483V28.6483ZM18.6032 35.4105C18.5019 35.3338 18.4549 35.2683 18.427 35.1676C18.3856 34.9842 18.4072 34.8776 18.5713 34.7676C18.6976 34.6849 18.7993 34.6451 18.7996 34.593C18.8054 34.4948 18.3827 34.3936 18.0872 34.6715C17.8419 34.9213 17.7644 35.442 18.1559 35.8477C18.5916 36.2971 19.2692 36.403 19.3748 36.9679C19.3887 37.048 19.399 37.1371 19.3918 37.2252C19.3933 37.3262 19.3579 37.4715 19.3562 37.4806C19.2252 38.0263 18.6832 38.5471 17.7895 38.4144C17.6249 38.3914 17.5182 38.3721 17.4863 38.4156C17.4174 38.5073 17.8005 38.926 18.5016 38.9107C19.1876 38.8968 19.8682 38.4061 20.0863 37.6685C20.0888 37.6589 20.1532 37.4498 20.1585 37.2624C20.1708 37.1236 20.1603 36.9809 20.1332 36.8314C19.9545 35.8843 18.9695 35.6896 18.6032 35.4105V35.4105ZM18.7597 34.0578L18.7598 34.0579L18.7602 34.0582C18.8938 34.1598 18.9964 34.2681 19.0728 34.3717C19.3234 34.7106 19.2437 34.9083 19.3465 35.0044C19.3835 35.0392 19.4365 35.0501 19.4894 35.0296C19.6314 34.9736 19.7012 34.7576 19.7145 34.607L19.7147 34.606C19.7503 34.2439 19.5499 33.8368 19.2844 33.5484L19.2837 33.5476C19.1212 33.3672 18.9073 33.1991 18.6529 33.0637C18.398 32.928 18.1023 32.8253 17.7771 32.7771C17.2154 32.6935 16.6627 32.8006 16.5084 32.8445L16.5092 32.8443C16.4296 32.8664 16.3313 32.8861 16.2468 32.9179C15.3305 33.2592 14.7275 33.8861 14.4592 34.7162L14.4591 34.7164L14.459 34.7169C14.3598 35.0329 14.3203 35.338 14.3203 35.6198C14.3203 35.8627 14.3496 36.0886 14.3953 36.2899V36.29L14.3954 36.2903L14.3953 36.29C14.4729 36.6285 14.6315 37.0098 14.8789 37.2601L14.8797 37.2608C15.1891 37.5803 15.5281 37.5191 15.3834 37.222C15.3488 37.1396 15.162 36.8032 15.1368 36.194C15.1205 35.7954 15.1777 35.3807 15.3308 35.002C15.4155 34.7972 15.5317 34.598 15.6828 34.4188C15.9941 34.0548 16.3768 33.8919 16.4216 33.8681C16.4751 33.8408 16.5311 33.8222 16.5915 33.7952C16.6151 33.7858 16.6425 33.7777 16.6726 33.7697C16.8649 33.7179 16.7558 33.7404 16.9506 33.7009H16.9504C17.6836 33.5523 18.3145 33.7147 18.7597 34.0578V34.0578ZM36.3009 30.0659C36.0026 29.8482 35.4531 29.7022 34.8827 29.7948C34.763 29.8121 34.6524 29.8476 34.5436 29.8755C34.5037 29.885 34.4655 29.8984 34.4283 29.9134C34.1925 30.0082 33.9883 30.1106 33.7902 30.292C33.5629 30.5019 33.4984 30.6969 33.5641 30.7448C33.6286 30.7941 33.786 30.7211 34.0291 30.6272C34.8437 30.3036 35.4202 30.295 35.9693 30.3316C36.2342 30.3486 36.4115 30.3638 36.4525 30.2949C36.4816 30.2481 36.4289 30.1592 36.3009 30.0659V30.0659ZM36.5167 29.0022C36.6166 29.1419 36.6434 29.2476 36.603 29.2915C36.5225 29.3815 36.2344 29.2599 35.8092 29.1016C34.7209 28.7136 33.9191 28.6546 32.4997 29.168C32.1408 29.2987 31.8863 29.3999 31.7642 29.3824C31.5652 29.3542 31.7579 29.006 32.193 28.6682C33.0682 28.0009 34.2705 27.7939 35.2978 28.1592C35.7474 28.3174 36.2524 28.633 36.5167 29.0022" fill="#976A4B"/>
<path d="M40.7271 26.1157C40.7201 25.778 40.776 25.2198 41.1088 25.1161C41.1093 25.116 41.1091 25.116 41.1095 25.1159C41.6784 24.9273 42.4315 26.3193 42.4662 27.5552C42.0167 27.3401 41.4884 27.2488 40.9453 27.2938C40.8086 26.896 40.7433 26.5212 40.7271 26.1157" fill="#61423F"/>
</svg>
