<svg width="60" height="60" viewBox="0 0 60 60" fill="none" xmlns="http://www.w3.org/2000/svg">
<g clip-path="url(#clip0_4948_3202)">
<path d="M36.2557 28.4534L18.4648 25.314V48.5118C18.4648 49.5709 19.3235 50.4305 20.3835 50.4305H51.0819C52.141 50.4305 53.0006 49.5718 53.0006 48.5118V39.9653L36.2557 28.4534Z" fill="#185C37"/>
<path d="M36.2557 8.56982H20.3835C19.3244 8.56982 18.4648 9.42852 18.4648 10.4885V19.035L36.2557 29.5001L45.674 32.6395L52.9997 29.5001V19.035L36.2557 8.56982Z" fill="#21A366"/>
<path d="M18.4648 19.0347H36.2557V29.4998H18.4648V19.0347Z" fill="#107C41"/>
<path opacity="0.1" d="M31.1976 16.9424H18.4648V43.1048H31.1976C32.2558 43.1013 33.1127 42.2443 33.1162 41.1861V18.8602C33.1127 17.802 32.2558 16.9459 31.1976 16.9424Z" fill="black"/>
<path opacity="0.2" d="M30.1517 17.9883H18.4648V44.1516H30.1517C31.2099 44.148 32.0668 43.2911 32.0703 42.2329V19.9069C32.0659 18.8487 31.209 17.9918 30.1517 17.9883Z" fill="black"/>
<path opacity="0.2" d="M30.1517 17.9883H18.4648V42.058H30.1517C31.2099 42.0545 32.0668 41.1976 32.0703 40.1394V19.9069C32.0659 18.8487 31.209 17.9918 30.1517 17.9883Z" fill="black"/>
<path opacity="0.2" d="M29.1049 17.9883H18.4648V42.058H29.1049C30.1631 42.0545 31.02 41.1976 31.0235 40.1394V19.9069C31.0191 18.8487 30.1631 17.9918 29.1049 17.9883Z" fill="black"/>
<path d="M9.91865 17.9883H29.1052C30.1643 17.9883 31.0238 18.847 31.0238 19.9069V39.0935C31.0238 40.1525 30.1651 41.0121 29.1052 41.0121H9.91865C8.85869 41.0121 8 40.1534 8 39.0935V19.9069C8 18.847 8.85869 17.9883 9.91865 17.9883Z" fill="url(#paint0_linear_4948_3202)"/>
<path d="M13.9414 35.735L17.9765 29.4824L14.2789 23.2642H17.2531L19.2711 27.2412C19.4574 27.6191 19.5849 27.8995 19.6543 28.085H19.6807C19.8134 27.7835 19.9531 27.4908 20.099 27.2069L22.2559 23.2668H24.9866L21.195 29.4481L25.0824 35.7358H22.1768L19.8459 31.3712C19.736 31.1857 19.6429 30.9906 19.5673 30.7885H19.533C19.4645 30.9862 19.3739 31.1761 19.2632 31.3536L16.8638 35.7367L13.9414 35.735Z" fill="white"/>
<path d="M51.0832 8.56982H36.2578V19.035H53.0019V10.4885C53.0019 9.42852 52.1432 8.56982 51.0832 8.56982Z" fill="#33C481"/>
<path d="M36.2578 29.5H53.0019V39.9651H36.2578V29.5Z" fill="#107C41"/>
</g>
<defs>
<linearGradient id="paint0_linear_4948_3202" x1="11.9996" y1="16.4897" x2="27.0236" y2="42.5107" gradientUnits="userSpaceOnUse">
<stop stop-color="#18884F"/>
<stop offset="0.5" stop-color="#117E43"/>
<stop offset="1" stop-color="#0B6631"/>
</linearGradient>
<clipPath id="clip0_4948_3202">
<rect width="45" height="45" fill="white" transform="translate(8 7)"/>
</clipPath>
</defs>
</svg>
