<svg width="60" height="60" viewBox="0 0 60 60" fill="none" xmlns="http://www.w3.org/2000/svg">
<g clip-path="url(#clip0_5227_9567)">
<path fill-rule="evenodd" clip-rule="evenodd" d="M34.3464 11.0078C39.9673 11.0058 45.5884 10.9887 51.2093 11.0124C54.551 11.0261 55.4931 12.1427 54.7728 15.4428C52.6632 25.1076 50.5063 34.7626 48.3204 44.4106C47.6291 47.46 46.0408 48.7093 42.8328 48.7188C31.5907 48.7522 20.3487 48.7559 9.10686 48.7173C5.43229 48.7044 4.46571 47.4598 5.2574 43.9775C7.40551 34.5201 9.56511 25.0656 11.742 15.6147C12.5713 12.0132 13.8176 11.0244 17.4829 11.0139C23.1041 10.998 28.7252 11.0097 34.3464 11.0078Z" fill="#E0EAF5"/>
<path fill-rule="evenodd" clip-rule="evenodd" d="M25.8534 47.5947C20.2317 47.5928 14.6098 47.6187 8.98843 47.5818C6.13779 47.5632 5.61945 46.8905 6.26114 44.1024C8.43662 34.6467 10.6822 25.2069 12.8093 15.7404C13.3797 13.2014 14.6101 12.0793 17.3303 12.1044C28.5726 12.2087 39.8168 12.1379 51.0599 12.1494C53.8795 12.1521 54.3529 12.7552 53.72 15.6148C51.6649 24.8988 49.597 34.1801 47.4926 43.4531C46.705 46.9235 45.7978 47.5857 42.1467 47.5938C36.7156 47.6052 31.2842 47.5967 25.8534 47.5947Z" fill="#2671BE"/>
<path fill-rule="evenodd" clip-rule="evenodd" d="M30.637 29.064C30.2601 28.6219 29.8463 28.1128 29.408 27.6262C26.9231 24.866 24.4601 22.0852 21.9309 19.3662C20.7736 18.1219 20.4047 16.9135 21.7946 15.6853C23.1681 14.4713 24.5177 14.5788 25.7777 15.9755C29.2866 19.8641 32.7914 23.757 36.3585 27.592C37.6903 29.0245 37.3801 29.9984 35.9132 31.0597C30.283 35.1349 24.6846 39.2543 19.0922 43.3815C17.8352 44.3094 16.6368 44.5417 15.6214 43.1711C14.5012 41.6594 15.5376 40.7599 16.6996 39.9138C20.8554 36.8868 25.0031 33.8486 29.133 30.7864C29.7083 30.3599 30.5341 30.1112 30.637 29.064Z" fill="#FDFDFE"/>
<path fill-rule="evenodd" clip-rule="evenodd" d="M32.415 43.6878C30.9015 43.6878 29.3858 43.7398 27.8758 43.6712C26.671 43.6167 25.946 42.9435 25.9612 41.6745C25.9758 40.4747 26.5806 39.5726 27.7842 39.5401C31.0921 39.4514 34.4049 39.4705 37.714 39.5352C38.7656 39.5557 39.5419 40.2409 39.5355 41.3367C39.528 42.5937 38.8665 43.5676 37.5203 43.6487C35.8241 43.7513 34.1174 43.6741 32.4153 43.6741C32.415 43.6783 32.415 43.6831 32.415 43.6878Z" fill="#FCFDFD"/>
</g>
<defs>
<clipPath id="clip0_5227_9567">
<rect width="50" height="37.7449" fill="white" transform="translate(5 11)"/>
</clipPath>
</defs>
</svg>
