<svg width="60" height="60" viewBox="0 0 60 60" fill="none" xmlns="http://www.w3.org/2000/svg">
<g clip-path="url(#clip0_5227_9551)">
<path fill-rule="evenodd" clip-rule="evenodd" d="M45.1484 23.9373C45.4487 23.2634 46.2361 22.9558 46.9099 23.2561C47.5837 23.5564 47.8877 24.3474 47.5911 25.0212C47.2908 25.6987 46.5034 26.0027 45.8296 25.7024C45.1521 25.4021 44.8481 24.6147 45.1484 23.9373ZM29.5076 11.3506C30.0422 10.8416 30.8882 10.8599 31.3972 11.3945C31.9062 11.9292 31.8879 12.7751 31.3533 13.2878C30.8186 13.7969 29.9763 13.7786 29.4636 13.2439C28.9546 12.7056 28.9729 11.8596 29.5076 11.3506ZM46.9502 29.3572C46.9502 29.7673 46.9355 30.1738 46.9062 30.5803H45.218C45.0496 30.5803 44.98 30.6902 44.98 30.855V31.6313C44.98 33.4551 43.9509 33.8542 43.05 33.9531C42.1931 34.0483 41.241 33.5942 41.1238 33.0669C40.6184 30.2178 39.7725 29.6099 38.4395 28.5588C40.0947 27.5078 41.8159 25.9587 41.8159 23.886C41.8159 21.6448 40.2815 20.2349 39.2341 19.5427C37.7656 18.5759 36.1396 18.3818 35.7002 18.3818H18.2429C20.6086 15.7415 23.8166 13.8701 27.4458 13.189L29.5039 15.3459C29.969 15.833 30.738 15.8513 31.2251 15.3862L33.5286 13.1853C38.3516 14.0825 42.4385 17.0854 44.7896 21.2053L43.2148 24.7649C42.9438 25.3801 43.2222 26.1016 43.8337 26.3762L46.8696 27.7239C46.9246 28.2585 46.9502 28.8042 46.9502 29.3572ZM26.772 26.5667V23.4685H32.3237C32.6094 23.4685 34.3489 23.8018 34.3489 25.0981C34.3489 26.1785 33.0159 26.563 31.9209 26.563L26.772 26.5667ZM14.1414 27.5884L17.0198 26.3103C17.635 26.0356 17.9133 25.3179 17.6387 24.699L17.0454 23.3586H19.3782V33.8689H14.676C14.2695 32.4334 14.0498 30.9209 14.0498 29.3572C14.0461 28.7566 14.0791 28.167 14.1414 27.5884ZM15.7087 23.8713C16.009 24.5452 15.7051 25.3398 15.0276 25.6365C14.3538 25.9368 13.5627 25.6328 13.2661 24.9553C12.9658 24.2778 13.2698 23.4905 13.9473 23.1902C14.6211 22.8899 15.4121 23.1975 15.7087 23.8713ZM20.8101 44.5549C20.0886 44.7124 19.3782 44.251 19.2244 43.5295C19.0706 42.8044 19.5283 42.094 20.2498 41.9402C20.9712 41.7864 21.6816 42.2441 21.8354 42.9692C21.9893 43.687 21.5315 44.4011 20.8101 44.5549ZM39.4063 40.2776C38.7471 40.1348 38.0989 40.5559 37.9597 41.2151L37.2896 44.3462C35.2205 45.2874 32.9207 45.8074 30.5 45.8074C28.0244 45.8074 25.677 45.2581 23.5676 44.2803L22.8975 41.1492C22.7546 40.49 22.1101 40.0725 21.4509 40.2117L18.686 40.8049C18.1733 40.2776 17.6973 39.7136 17.2578 39.1204H30.7051C30.8589 39.1204 30.9578 39.0911 30.9578 38.9556V34.1985C30.9578 34.0593 30.8552 34.0337 30.7051 34.0337H26.772V31.0198H31.0237C31.4119 31.0198 33.1001 31.1296 33.6384 33.2866C33.8069 33.9495 34.1768 36.1064 34.4331 36.7986C34.6858 37.575 35.7148 39.1204 36.8135 39.1204H43.5115C43.5884 39.1204 43.6689 39.113 43.7532 39.0947C43.2881 39.7246 42.7791 40.3252 42.2297 40.8818L39.4063 40.2776ZM40.0471 44.6209C39.3257 44.4634 38.8679 43.7529 39.0217 43.0315C39.1755 42.3101 39.886 41.8486 40.6074 42.0061C41.3289 42.1599 41.7903 42.874 41.6328 43.5955C41.479 44.3132 40.7686 44.7747 40.0471 44.6209ZM52.6924 28.947L50.8027 27.7788C50.7881 27.5957 50.7698 27.4126 50.7478 27.2295L52.3701 25.717C52.5349 25.5632 52.6082 25.3362 52.5642 25.1165C52.5203 24.8967 52.3665 24.7136 52.1541 24.6331L50.0776 23.8567C50.0264 23.6772 49.9714 23.4978 49.9165 23.322L51.2092 21.5239C51.3411 21.3408 51.3667 21.1028 51.2825 20.894C51.1982 20.6853 51.0078 20.5388 50.7881 20.5022L48.5981 20.147C48.5139 19.9822 48.426 19.8174 48.3345 19.6563L49.2537 17.6384C49.3489 17.4333 49.3269 17.1953 49.2024 17.0085C49.0779 16.8218 48.8655 16.7119 48.6384 16.7192L46.4155 16.7961C46.302 16.6533 46.1848 16.5105 46.064 16.3713L46.573 14.207C46.6243 13.9873 46.5583 13.7566 46.4009 13.5991C46.2434 13.4417 46.0127 13.3757 45.793 13.427L43.6287 13.936C43.4895 13.8188 43.3467 13.7017 43.2039 13.5845L43.2808 11.3616C43.2881 11.1382 43.1782 10.9221 42.9915 10.7976C42.8047 10.6731 42.5667 10.6548 42.3616 10.7463L40.3437 11.6655C40.1826 11.5776 40.0178 11.4861 39.853 11.4019L39.4978 9.21191C39.4612 8.98853 39.3147 8.80176 39.106 8.71753C38.8972 8.62964 38.6592 8.65894 38.4761 8.79077L36.678 10.0872C36.5022 10.0322 36.3228 9.97729 36.1433 9.92603L35.3706 7.84229C35.2937 7.62988 35.1106 7.47607 34.8872 7.43213C34.6675 7.38818 34.4404 7.46143 34.2866 7.62622L32.7705 9.2522C32.5874 9.23022 32.4043 9.21191 32.2212 9.19727L31.053 7.30762C30.9358 7.11719 30.7271 7 30.5 7C30.2729 7 30.0642 7.11719 29.947 7.30762L28.7788 9.19727C28.5957 9.21191 28.4126 9.23022 28.2295 9.2522L26.7134 7.62622C26.5596 7.46143 26.3325 7.38818 26.1128 7.43213C25.8931 7.47607 25.71 7.62988 25.6294 7.84229L24.853 9.9187C24.6736 9.96997 24.4941 10.0249 24.3184 10.0798L22.5203 8.78345C22.3372 8.65161 22.0991 8.62231 21.8904 8.71021C21.6816 8.79443 21.5352 8.98486 21.4985 9.20459L21.1433 11.3945C20.9785 11.4788 20.8137 11.5667 20.6526 11.6582L18.6348 10.739C18.4297 10.6438 18.1917 10.6658 18.0049 10.7903C17.8181 10.9148 17.7083 11.1272 17.7156 11.3542L17.7925 13.5771C17.6497 13.6907 17.5068 13.8079 17.3677 13.9287L15.2034 13.4197C14.9836 13.3684 14.7529 13.4343 14.5955 13.5918C14.4343 13.7529 14.3721 13.98 14.4233 14.1997L14.9324 16.364C14.8152 16.5032 14.698 16.646 14.5808 16.7888L12.3579 16.7119C12.1345 16.7046 11.9185 16.8145 11.7939 17.0012C11.6694 17.188 11.6511 17.426 11.7427 17.6311L12.6619 19.6489C12.574 19.8101 12.4824 19.9749 12.3982 20.1396L10.2083 20.4949C9.98486 20.5315 9.7981 20.678 9.71387 20.8867C9.62964 21.0955 9.65527 21.3335 9.78711 21.5166L11.0835 23.3147C11.0286 23.4905 10.9736 23.6699 10.9224 23.8494L8.84229 24.6294C8.62988 24.7063 8.47607 24.8894 8.43213 25.1128C8.38818 25.3325 8.46143 25.5596 8.62622 25.7134L10.2485 27.2258C10.2302 27.4089 10.2119 27.592 10.1936 27.7751L8.30396 28.9434C8.11719 29.0679 8 29.2766 8 29.5C8 29.7271 8.11719 29.9358 8.30762 30.053L10.1973 31.2212C10.2119 31.4043 10.2302 31.5874 10.2522 31.7705L8.62988 33.2866C8.46509 33.4404 8.39185 33.6675 8.43579 33.8872C8.47974 34.1069 8.63354 34.29 8.84595 34.3706L10.9224 35.147C10.9736 35.3264 11.0286 35.5059 11.0835 35.6816L9.78711 37.4797C9.65527 37.6628 9.62598 37.9009 9.71387 38.1096C9.80176 38.3184 9.98853 38.4685 10.2119 38.5015L12.3982 38.8604C12.4824 39.0251 12.5703 39.1899 12.6619 39.3511L11.7427 41.3689C11.6475 41.574 11.6694 41.812 11.7939 41.9988C11.9185 42.1855 12.1345 42.2954 12.3579 42.2881L14.5771 42.2112C14.6943 42.354 14.8079 42.4968 14.9287 42.636L14.4197 44.8003C14.3684 45.02 14.4343 45.2471 14.5918 45.4082C14.7493 45.5693 14.98 45.6316 15.1997 45.5803L17.364 45.0713C17.5032 45.1921 17.646 45.3057 17.7888 45.4229L17.7119 47.6458C17.7046 47.8691 17.8145 48.0852 18.0012 48.2097C18.188 48.3342 18.426 48.3525 18.6311 48.261L20.6489 47.3418C20.8101 47.4334 20.9749 47.5212 21.1396 47.6055L21.4949 49.7917C21.5315 50.0151 21.678 50.2019 21.8867 50.2898C22.0955 50.3777 22.3335 50.3484 22.5166 50.2166L24.3147 48.9202C24.4905 48.9751 24.6699 49.03 24.8494 49.085L25.6257 51.1614C25.7026 51.3738 25.8857 51.5276 26.1091 51.5715C26.3289 51.6155 26.5559 51.5422 26.7097 51.3774L28.2258 49.7551C28.4089 49.7771 28.592 49.7954 28.7751 49.8101L29.9434 51.6997C30.0605 51.8901 30.2693 52.0073 30.4963 52.0073C30.7234 52.0073 30.9321 51.8901 31.0493 51.6997L32.2175 49.8101C32.4006 49.7954 32.5837 49.7771 32.7668 49.7551L34.283 51.3774C34.4368 51.5422 34.6638 51.6155 34.8835 51.5715C35.1033 51.5276 35.2864 51.3738 35.3669 51.1614L36.1433 49.085C36.3228 49.0337 36.5022 48.9788 36.678 48.9202L38.4761 50.2166C38.6592 50.3484 38.8972 50.374 39.106 50.2898C39.3147 50.2056 39.4612 50.0151 39.4978 49.7917L39.853 47.6055C40.0178 47.5212 40.1826 47.4297 40.3437 47.3418L42.3616 48.261C42.5667 48.3562 42.8047 48.3342 42.9915 48.2097C43.1782 48.0852 43.2881 47.8728 43.2808 47.6458L43.2039 45.4229C43.3467 45.3093 43.4895 45.1921 43.6287 45.0713L45.793 45.5803C46.0127 45.6316 46.2434 45.5693 46.4009 45.4082C46.562 45.2471 46.6243 45.02 46.573 44.8003L46.064 42.636C46.1812 42.4968 46.2983 42.354 46.4155 42.2112L48.6384 42.2881C48.8618 42.2954 49.0779 42.1855 49.2024 41.9988C49.3269 41.812 49.3489 41.574 49.2537 41.3689L48.3345 39.3511C48.426 39.1863 48.5139 39.0251 48.5981 38.8604L50.7881 38.5051C51.0115 38.4685 51.1982 38.322 51.2825 38.1133C51.3704 37.9045 51.3411 37.6665 51.2092 37.4834L49.9128 35.6853C49.9678 35.5059 50.0227 35.3301 50.074 35.1506L52.1504 34.3743C52.3628 34.2937 52.5166 34.1143 52.5605 33.8909C52.6045 33.6711 52.5313 33.4441 52.3665 33.2903L50.7441 31.7742C50.7625 31.5911 50.7808 31.408 50.7991 31.2249L52.6887 30.0566C52.8791 29.9395 52.9963 29.7307 52.9963 29.5037C53 29.2766 52.8828 29.0679 52.6924 28.947Z" fill="#252422"/>
</g>
<defs>
<clipPath id="clip0_5227_9551">
<rect width="45" height="45" fill="white" transform="translate(8 7)"/>
</clipPath>
</defs>
</svg>
