<svg width="60" height="60" viewBox="0 0 60 60" fill="none" xmlns="http://www.w3.org/2000/svg">
<path d="M17.4871 35.4487C17.4871 38.0655 15.374 40.1766 12.7629 40.1766C10.1519 40.1766 8.03516 38.0619 8.03516 35.4487C8.03516 32.8318 10.1482 30.7207 12.7593 30.7207H17.4834V35.4487H17.4871ZM19.8491 35.4487C19.8491 32.8318 21.9622 30.7207 24.5732 30.7207C27.1843 30.7207 29.2974 32.8355 29.2974 35.4487V47.2723C29.2974 49.8891 27.1843 52.0002 24.5732 52.0002C21.9622 52.0002 19.8491 49.8855 19.8491 47.2723V35.4487Z" fill="#E01E5A"/>
<path d="M24.5747 16.4598C21.96 16.4598 19.8506 14.3451 19.8506 11.7319C19.8506 9.115 21.9636 7.00391 24.5747 7.00391C27.1858 7.00391 29.2988 9.11866 29.2988 11.7319V16.4598H24.5747ZM24.5747 18.8605C27.1895 18.8605 29.2988 20.9752 29.2988 23.5884C29.2988 26.2053 27.1858 28.3164 24.5747 28.3164H12.7241C10.113 28.3201 8 26.2053 8 23.5884C8 20.9716 10.113 18.8605 12.7241 18.8605H24.5747Z" fill="#36C5F0"/>
<path d="M43.5134 23.5882C43.5134 20.9713 45.6265 18.8602 48.2376 18.8602C50.8523 18.8602 52.9617 20.975 52.9617 23.5882C52.9617 26.2051 50.8486 28.3162 48.2376 28.3162H43.5134V23.5882ZM41.1514 23.5882C41.1514 26.2051 39.0383 28.3162 36.4272 28.3162C33.8125 28.3162 31.7031 26.2014 31.7031 23.5882V11.728C31.7031 9.11109 33.8162 7 36.4272 7C39.042 7 41.1514 9.11476 41.1514 11.728V23.5882Z" fill="#2EB67D"/>
<path d="M36.4272 42.5406C39.042 42.5406 41.1514 44.6554 41.1514 47.2686C41.1514 49.8855 39.0383 51.9966 36.4272 51.9966C33.8125 51.9966 31.7031 49.8818 31.7031 47.2686V42.5406H36.4272ZM36.4272 40.1766C33.8125 40.1766 31.7031 38.0619 31.7031 35.4487C31.7031 32.8318 33.8162 30.7207 36.4272 30.7207H48.2778C50.8926 30.7207 53.002 32.8355 53.002 35.4487C53.002 38.0655 50.8889 40.1766 48.2778 40.1766H36.4272Z" fill="#ECB22E"/>
</svg>
