<svg width="60" height="60" viewBox="0 0 60 60" fill="none" xmlns="http://www.w3.org/2000/svg">
<path d="M48.9742 10.6296C48.3494 12.1283 47.5407 13.5435 46.5667 14.8427C44.4815 12.6854 41.9847 10.9683 39.2241 9.79299C36.4635 8.61768 33.4952 8.00801 30.4949 8.00008C27.4945 7.99214 24.5231 8.5861 21.7563 9.74679C18.9895 10.9075 16.4837 12.6114 14.387 14.7576C12.2904 16.9038 10.6455 19.4487 9.54974 22.2418C8.45397 25.0349 7.92958 28.0195 8.00758 31.0188C8.08559 34.0182 8.76441 36.9714 10.0039 39.7038C11.2433 42.4362 13.0183 44.8922 15.2237 46.9265L16.057 47.6673C19.2194 50.3343 23.0583 52.0741 27.1486 52.6939C31.2389 53.3137 35.4208 52.7893 39.2314 51.1787C43.042 49.5682 46.3325 46.9345 48.7385 43.5691C51.1445 40.2038 52.572 36.2382 52.8631 32.1115C53.5113 26.4632 51.7983 19.2409 48.9742 10.6296ZM18.4645 47.1117C18.2264 47.4042 17.907 47.6196 17.5466 47.7306C17.1862 47.8417 16.8009 47.8434 16.4395 47.7356C16.0782 47.6277 15.7569 47.4152 15.5162 47.1248C15.2756 46.8344 15.1265 46.4792 15.0877 46.104C15.0489 45.7289 15.1221 45.3507 15.2982 45.0172C15.4743 44.6837 15.7453 44.4099 16.0769 44.2303C16.4086 44.0508 16.786 43.9736 17.1615 44.0085C17.5371 44.0434 17.8938 44.1889 18.1867 44.4265C18.5706 44.7517 18.8139 45.2127 18.8657 45.7132C18.9175 46.2137 18.7737 46.7148 18.4645 47.1117V47.1117ZM48.8353 40.3986C43.3259 47.7598 31.4739 45.2598 23.9275 45.6302C23.9275 45.6302 22.5849 45.7228 21.2423 45.908C21.2423 45.908 21.7515 45.6765 22.3997 45.445C27.7239 43.5931 30.2239 43.2227 33.4647 41.5561C39.5296 38.4542 45.5945 31.6485 46.7982 24.6113C44.4834 31.3707 37.4462 37.2041 31.0572 39.5653C26.659 41.1857 18.7422 42.7598 18.7422 42.7598L18.4182 42.5746C13.0477 39.9357 12.8625 28.2688 22.6775 24.5187C26.9831 22.8521 31.0572 23.778 35.7332 22.6669C40.687 21.5094 46.4279 17.8057 48.7427 12.9445C51.3353 20.7687 54.4835 32.8985 48.8353 40.3986Z" fill="#6DB33F"/>
</svg>
