<svg width="60" height="60" viewBox="0 0 60 60" fill="none" xmlns="http://www.w3.org/2000/svg">
<g clip-path="url(#clip0_5227_9536)">
<path d="M38.8973 22.8716L33.3751 24.6743L28.5712 26.7948L27.2271 27.1501C26.8856 27.4758 26.5265 27.8054 26.1378 28.139C25.7127 28.506 25.3162 28.8406 25.0111 29.0826C24.6145 29.4094 24.2486 29.7717 23.9179 30.1651C23.5381 30.6413 23.238 31.1491 23.1081 31.5348C22.8788 32.2354 22.991 32.9449 23.4338 33.6012C24.0015 34.4356 25.1322 35.2878 26.4517 35.8644C27.3146 36.2237 28.2026 36.5197 29.1085 36.75C30.5235 37.1082 33.261 37.4968 34.7685 37.5549C35.0116 37.5689 35.2554 37.5689 35.4986 37.5549C35.532 37.5342 35.7653 37.0875 36.0368 36.5325C36.9638 34.6423 37.6309 32.8681 37.994 31.3527C38.2115 30.4347 38.3827 29.2125 38.4949 27.7641C38.5244 27.3587 38.5372 26.0027 38.5116 25.5432C38.4834 24.8871 38.4138 24.2334 38.303 23.586C38.2882 23.5302 38.2839 23.4722 38.2902 23.4148C38.3069 23.402 38.3571 23.3853 39.038 23.1895L38.9003 22.8638L38.8973 22.8716ZM37.6368 23.6106C37.687 23.6106 37.8199 24.8898 37.8533 25.7016C37.8659 25.7957 37.8659 25.891 37.8533 25.985C37.8199 25.985 37.1478 25.5914 36.6725 25.2883C36.2543 25.0256 35.4622 24.5011 35.3362 24.4027C35.2949 24.3732 35.2988 24.3693 35.6413 24.2522C36.213 24.0524 37.5906 23.6106 37.6368 23.6106ZM34.8236 24.5376C34.861 24.5376 34.9574 24.5917 35.1867 24.7344C36.0467 25.2726 37.2147 25.924 37.7155 26.1405C37.87 26.2074 37.8868 26.1828 37.5325 26.4249C36.6246 27.0227 35.665 27.5381 34.6651 27.9648C34.4605 28.0563 34.2893 28.1272 34.2853 28.1272C34.2933 28.0491 34.3102 27.9722 34.3355 27.8979C34.602 26.9414 34.752 25.9561 34.7822 24.9636C34.7822 24.5464 34.7822 24.5464 34.8236 24.5336C34.8157 24.5385 34.8236 24.5385 34.8236 24.5385V24.5376ZM34.243 24.7599C34.2686 24.7855 34.2519 25.7203 34.2184 25.9752C34.1438 26.5904 34.0154 27.1979 33.8346 27.7907C33.8075 27.8909 33.7747 27.9894 33.7362 28.0859C33.7195 28.1065 33.1458 27.5466 32.9599 27.3301C32.6601 26.9893 32.4024 26.6137 32.1924 26.2113C32.098 26.0292 32.0197 25.8392 31.9582 25.6436C32.0251 25.5983 34.2214 24.7462 34.241 24.758L34.243 24.7599ZM31.5134 25.8325C31.5158 25.8321 31.5182 25.8324 31.5204 25.8333C31.5227 25.8341 31.5247 25.8356 31.5262 25.8374C31.5525 25.8849 31.5736 25.935 31.5892 25.987C31.7659 26.4275 31.9973 26.8441 32.278 27.2268C32.5634 27.6049 32.8865 27.9531 33.2423 28.2659C33.3407 28.3496 33.4342 28.4293 33.446 28.4411C33.4578 28.4529 33.4794 28.4627 32.7995 28.7215C32.0123 29.0167 31.1513 29.3218 30.1663 29.6396C29.9311 29.7154 29.6959 29.7911 29.4608 29.8689C29.4234 29.8817 29.4352 29.86 29.5444 29.6898C30.0364 28.9252 30.7754 27.4266 31.1926 26.3668C31.2635 26.1838 31.3343 25.9998 31.3471 25.9584C31.3522 25.9341 31.3633 25.9115 31.3792 25.8924C31.3952 25.8734 31.4156 25.8585 31.4386 25.8492C31.4618 25.8418 31.4854 25.8362 31.5095 25.8325H31.5134ZM30.6809 26.1769C30.5602 26.4719 30.4239 26.7603 30.2726 27.0408C29.8672 27.828 29.4244 28.6064 28.832 29.5501C28.7336 29.7124 28.6352 29.863 28.6234 29.8797C28.6116 29.8964 28.5939 29.9004 28.525 29.7705C28.3748 29.4636 28.2666 29.1379 28.2032 28.8022C28.1434 28.3892 28.1503 27.9692 28.2239 27.5584C28.278 27.2996 28.2741 27.3046 28.399 27.2416C28.9333 26.97 30.6622 26.1592 30.678 26.1769H30.6809ZM37.8809 26.4721V26.6472C37.8713 27.698 37.7891 28.7468 37.6349 29.7862C37.6093 29.9496 37.5886 30.0814 37.5847 30.0873C37.5807 30.0932 37.4636 30.0539 37.321 30.0115C36.6569 29.7995 36.015 29.5237 35.4041 29.1879C34.9997 28.9665 34.4113 28.6034 34.428 28.5867C34.4447 28.57 34.6071 28.4883 34.8118 28.382C35.5963 27.9767 36.3584 27.5293 37.0946 27.0418C37.3495 26.8716 37.7333 26.5961 37.8169 26.5203L37.8838 26.4701L37.8809 26.4721ZM27.5321 27.705C27.5489 27.705 27.5449 27.7385 27.5193 27.8881C27.5026 27.9973 27.4819 28.1971 27.4741 28.3348C27.4396 28.9449 27.54 29.3956 27.8411 30.0076C27.8952 30.1109 27.9438 30.217 27.9867 30.3254C27.9572 30.35 25.1951 31.1599 24.3263 31.398L23.8254 31.5358C23.7969 31.5436 23.7919 31.5358 23.8047 31.4689C23.9031 30.8548 24.3686 30.0539 25.019 29.3779C25.4189 28.9557 25.884 28.6006 26.3966 28.326C26.8227 28.0839 27.479 27.7208 27.5272 27.7041C27.5272 27.7041 27.5272 27.7041 27.5361 27.7041L27.5321 27.705ZM34.0433 28.8691C34.1212 28.9039 34.1965 28.9443 34.2686 28.9902C35.2723 29.5492 36.348 29.9677 37.4656 30.2339L37.564 30.2546L37.4302 30.3304C36.8752 30.6393 35.0519 31.399 33.1862 32.0957C32.9146 32.1941 32.6479 32.2925 32.5958 32.3171C32.5651 32.3327 32.5317 32.3423 32.4974 32.3456C32.4974 32.3456 32.5732 32.196 32.6686 32.016C33.1856 31.055 33.6252 30.0544 33.9832 29.0236C34.0167 28.9449 34.0374 28.8731 34.0423 28.8691H34.0433ZM33.3751 29.0895C33.3576 29.1556 33.3339 29.2198 33.3043 29.2814C32.8821 30.2829 32.3983 31.2572 31.8558 32.199C31.7013 32.4745 31.5724 32.6959 31.5685 32.6959C31.5646 32.6959 31.4386 32.6201 31.2881 32.5286C30.4025 31.9855 29.6153 31.3183 29.1055 30.6708L29.0308 30.5793L29.4106 30.475C30.6603 30.1404 31.8848 29.7179 33.075 29.2106C33.2393 29.1407 33.3712 29.0895 33.3751 29.0895ZM37.4991 30.5291C37.4991 30.6275 37.2905 31.4846 37.1153 32.1035C36.9687 32.626 36.8437 33.0344 36.6144 33.7567C36.516 34.0735 36.4265 34.3372 36.4226 34.3372C36.4039 34.3345 36.3854 34.3303 36.3675 34.3244C35.2072 34.1213 34.0704 33.8012 32.9746 33.369C32.6794 33.2519 32.2652 33.0639 32.2406 33.0433C32.4208 32.9431 32.6076 32.855 32.7995 32.7795C34.6986 31.949 36.6686 31.0083 37.3446 30.601C37.3919 30.5682 37.444 30.543 37.4991 30.5262V30.5291ZM27.9789 30.8548C27.9867 30.8627 27.4573 31.6273 26.7144 32.6664C26.4556 33.0295 26.1545 33.4536 26.0424 33.614C25.9302 33.7744 25.7609 34.0194 25.6625 34.1699L25.4874 34.4415L25.2994 34.2821C25.0199 34.0392 24.7603 33.7743 24.5231 33.49C24.1929 33.0984 23.9548 32.6378 23.8264 32.1419C23.7801 31.9451 23.7801 31.8408 23.8215 31.829C23.8844 31.8123 25.0023 31.5486 26.0424 31.3065C26.6219 31.1737 27.294 31.0113 27.5361 30.9562C27.7781 30.9011 27.9749 30.8519 27.9789 30.8519V30.8548ZM28.5161 31.0575L28.65 31.2071C29.211 31.8441 29.872 32.3855 30.6071 32.81C30.688 32.8494 30.7637 32.8987 30.8325 32.9567C30.8029 32.9773 28.2534 33.8826 27.0716 34.2919C26.4084 34.5252 25.8613 34.7131 25.8574 34.7131C25.8283 34.697 25.8003 34.6789 25.7737 34.659L25.6989 34.6049L25.82 34.4297C26.2136 33.8619 26.7056 33.2401 27.7771 31.9461L28.5161 31.0605V31.0575ZM31.847 33.4408C31.847 33.4359 32.0339 33.5028 32.2593 33.5864C32.7654 33.7774 33.2826 33.9378 33.8081 34.0666C34.5785 34.2552 35.361 34.3903 36.15 34.471C36.2415 34.4799 36.2917 34.4878 36.275 34.5006C36.2582 34.5133 35.6324 34.722 35.1817 34.8637C34.4634 35.089 32.2721 35.7365 30.4861 36.2491C30.1565 36.3475 29.8721 36.4243 29.8554 36.4292C29.7925 36.4309 29.7304 36.4149 29.6763 36.3829C29.7446 36.2856 29.8185 36.1923 29.8977 36.1035C30.5055 35.3768 31.0712 34.6159 31.5921 33.8245C31.7299 33.6159 31.847 33.4447 31.847 33.4408V33.4408ZM31.1119 33.4615C31.1119 33.4615 30.8167 33.9416 30.3021 34.7593C30.0807 35.1057 29.8347 35.4983 29.7471 35.6361C29.6595 35.7739 29.5385 35.9785 29.4677 36.0946L29.3466 36.3082L29.2836 36.2914C29.1341 36.2491 28.0773 35.8782 27.7978 35.765C27.4661 35.6334 27.1416 35.4843 26.8256 35.3183C26.492 35.1392 26.0748 34.8715 26.1073 34.8637C26.1162 34.8637 26.6879 34.7052 27.3767 34.5173C29.2049 34.0204 30.2184 33.7301 30.8826 33.5244C30.9574 33.4979 31.0341 33.4768 31.1119 33.4615ZM36.3084 34.6796C36.3252 34.722 35.6491 36.6004 35.4031 37.1928C35.348 37.3266 35.3274 37.3591 35.2988 37.3551C35.227 37.3551 34.2469 37.2134 33.6497 37.1259C32.6106 36.9674 30.8659 36.6624 30.428 36.562L30.3296 36.5414L30.9515 36.3997C32.2868 36.0986 32.9294 35.9362 33.5808 35.7355C34.4223 35.4789 35.2443 35.1625 36.0408 34.7889C36.1274 34.7463 36.2168 34.7098 36.3084 34.6796V34.6796Z" fill="url(#paint0_linear_5227_9536)"/>
<path d="M33.2058 10.0002C33.1142 9.98838 31.6314 10.5217 30.6769 10.9104C29.3868 11.4358 28.3851 11.9367 27.7682 12.3706C27.5379 12.534 27.2506 12.8223 27.2043 12.9345C27.1873 12.9798 27.179 13.0278 27.1797 13.0762L27.7386 13.6066L29.07 14.0346L32.2375 14.6014L35.8606 15.2233L35.898 14.9104C35.8852 14.9104 35.8773 14.9104 35.8645 14.9104L35.3892 14.8356L35.2908 14.6644C34.7988 13.7965 34.2557 12.719 33.9388 11.9928C33.6999 11.4441 33.4971 10.8804 33.3317 10.3052C33.2599 10.0209 33.252 10.0051 33.2058 10.0002V10.0002ZM33.1428 10.2137C33.1428 10.2137 33.1634 10.3348 33.1802 10.4725C33.2543 11.0703 33.3898 11.6589 33.5846 12.229C33.7391 12.6885 33.7391 12.6629 33.56 12.6088C33.1349 12.4917 31.2279 12.165 29.8464 11.9682C29.625 11.9397 29.437 11.9101 29.437 11.9062C29.4203 11.8895 30.4348 11.3591 30.8815 11.1505C31.4532 10.8858 33.0227 10.2344 33.1428 10.2137ZM29.1202 12.0833L29.2825 12.1374C30.1681 12.4376 32.392 12.8636 33.619 12.964C33.7568 12.9758 33.8739 12.9886 33.8778 12.9886C33.7938 13.0409 33.7059 13.087 33.6151 13.1264C33.0247 13.4216 32.3713 13.7856 31.9206 14.0661C31.8346 14.1237 31.7438 14.1738 31.6491 14.2156C31.6323 14.2156 31.5448 14.1989 31.4523 14.1871L31.285 14.1615L30.8678 13.7522C30.1327 13.0388 29.5571 12.4877 29.3357 12.2762L29.1202 12.0833ZM28.9529 12.2122L29.5433 12.9473C29.8651 13.3517 30.1898 13.7482 30.2616 13.8329C30.3076 13.8839 30.3494 13.9385 30.3866 13.9962C30.3699 14.008 29.5354 13.8457 29.0926 13.7453C28.6498 13.6449 28.4501 13.5908 28.1706 13.5032L27.9404 13.4284V13.3694C27.9453 13.09 28.2995 12.6727 28.9008 12.2467L28.9549 12.2093L28.9529 12.2122ZM33.9526 13.2139C33.9693 13.2139 33.99 13.2513 34.0402 13.3645C34.1829 13.6774 34.6247 14.5207 34.729 14.683C34.7624 14.7372 34.8215 14.7421 34.237 14.6457C32.822 14.4164 32.3674 14.3406 32.3674 14.3327C32.3972 14.3075 32.4303 14.2863 32.4658 14.2698C32.9173 14.0155 33.3436 13.719 33.7391 13.3842C33.8375 13.3054 33.9221 13.2297 33.9359 13.2179C33.9497 13.2061 33.9487 13.2051 33.9526 13.209V13.2139Z" fill="url(#paint1_linear_5227_9536)"/>
<path d="M27.2373 12.8765C27.2096 12.933 27.1953 12.9951 27.1953 13.058C27.1953 13.1209 27.2096 13.183 27.2373 13.2396C27.2924 13.3724 27.4508 13.5348 27.6309 13.703C27.6309 13.703 29.4887 15.5136 29.714 15.7694C30.7403 16.9502 31.19 18.1241 31.2284 19.735C31.254 20.7701 31.0572 21.6793 30.5691 22.7352C29.7012 24.6304 27.869 26.7214 25.043 29.0416L25.4562 28.9039C25.7239 28.7071 26.087 28.4916 26.9382 28.0232C28.9062 26.9467 31.1162 25.9568 33.8262 24.9393C37.7326 23.4702 44.1582 21.7502 47.8117 21.1913L48.1916 21.1332L48.1335 21.0407C47.8759 20.6318 47.5957 20.2376 47.2942 19.8599C46.4756 18.8536 45.4693 18.0158 44.3313 17.393C42.6861 16.4818 40.5705 15.7684 37.892 15.2381C37.3863 15.1397 36.2763 14.9429 35.375 14.809C33.4631 14.5138 32.2262 14.3082 30.8673 14.074C30.3753 13.9904 29.6481 13.8654 29.164 13.7611C28.7907 13.6822 28.4218 13.5836 28.0589 13.4659C27.7578 13.3488 27.3239 13.2317 27.2324 12.8755L27.2373 12.8765ZM28.3138 13.9195C28.3677 13.9324 28.4207 13.9492 28.4722 13.9697C28.6306 14.0238 28.8353 14.0868 29.0774 14.1537C29.2604 14.2036 29.4441 14.2521 29.6284 14.2993C29.8793 14.3623 30.0879 14.4204 30.0919 14.4204C30.1214 14.4499 30.5425 15.798 30.6823 16.3156C30.7364 16.5124 30.7807 16.6786 30.7748 16.6786C30.7335 16.6284 30.6982 16.5736 30.6695 16.5153C30.1775 15.6553 29.41 14.7835 28.5165 14.0819C28.4442 14.033 28.3758 13.9787 28.3118 13.9195H28.3138ZM30.3674 14.4873C30.4433 14.4947 30.5185 14.5072 30.5927 14.5247C31.3022 14.6831 32.5755 14.9252 33.3893 15.0629C33.4725 15.071 33.5544 15.0892 33.6333 15.117C33.6 15.1471 33.5617 15.171 33.5201 15.1879C33.3824 15.2597 32.8313 15.5894 32.6444 15.7143C32.2221 15.9909 31.8268 16.3065 31.4636 16.657C31.3425 16.778 31.2382 16.8784 31.2382 16.8784C31.2382 16.8784 31.2136 16.8076 31.193 16.72C30.9992 16.0194 30.7491 15.3356 30.4451 14.6752C30.4142 14.6128 30.3866 14.5487 30.3625 14.4833C30.3625 14.4912 30.3625 14.4833 30.3625 14.4833L30.3674 14.4873ZM33.9816 15.1761C34.0062 15.184 34.0485 15.3256 34.1322 15.6395C34.2878 16.264 34.354 16.9074 34.329 17.5505C34.3211 17.7256 34.3123 17.889 34.3044 17.9096L34.2916 17.951L34.0751 17.8801C33.6284 17.7384 32.9022 17.5259 32.2803 17.3507C31.9251 17.2523 31.6377 17.1667 31.6377 17.1539C31.8708 16.8953 32.1171 16.6489 32.3757 16.4159C32.7979 16.044 33.9413 15.1594 33.9787 15.1721L33.9816 15.1761ZM34.2699 15.2174C34.2817 15.2046 35.9978 15.5018 36.7782 15.6514C37.3577 15.7645 38.201 15.9397 38.2542 15.9603C38.2797 15.9692 38.1912 16.0194 37.9117 16.1443C36.9596 16.5603 36.0451 17.0574 35.1782 17.6302C34.9656 17.7719 34.7846 17.889 34.7846 17.889C34.777 17.8 34.7744 17.7106 34.7767 17.6213C34.7793 16.8421 34.6261 16.0703 34.326 15.3512C34.2999 15.3088 34.2794 15.2631 34.265 15.2154L34.2699 15.2174ZM38.7058 16.0942C38.692 16.2802 38.6613 16.4646 38.6143 16.6452C38.4549 17.2671 38.0544 18.1891 37.5575 19.053C37.5051 19.1514 37.4466 19.2464 37.3823 19.3374C37.2958 19.2992 37.2122 19.2545 37.1324 19.2036C36.6055 18.9002 36.0588 18.6326 35.496 18.4026C35.3287 18.3318 35.1831 18.2727 35.1792 18.2649C35.1496 18.2393 36.4938 17.3507 37.2032 16.9246C37.7661 16.5822 38.6842 16.0735 38.7009 16.0902L38.7058 16.0942ZM39.0236 16.1443C39.061 16.1443 39.8207 16.3529 40.2172 16.47C41.185 16.7574 42.1341 17.1044 43.059 17.5091L43.3641 17.6469L43.1515 17.6971C41.5096 18.0627 39.9001 18.561 38.3388 19.1869C38.2177 19.237 38.1095 19.2784 38.1007 19.2784C38.1226 19.2047 38.1519 19.1335 38.1882 19.0658C38.635 18.1182 38.9233 17.1293 38.9941 16.286C38.9941 16.2063 39.0109 16.1443 39.0236 16.1443V16.1443ZM31.4557 17.8801C31.4685 17.8683 32.0461 18.0061 32.362 18.0936C32.8372 18.2265 33.8468 18.565 33.8468 18.5856C33.8468 18.5856 33.7346 18.684 33.6008 18.8031C33.0547 19.2577 32.5283 19.7379 31.8985 20.347C31.7106 20.5271 31.5521 20.6727 31.5433 20.6727C31.5344 20.6727 31.5315 20.6481 31.5354 20.6146C31.6284 19.7768 31.6085 18.9302 31.4764 18.0976C31.4685 17.9844 31.4518 17.884 31.4557 17.8801ZM43.6475 17.8929C43.6553 17.9008 43.3798 18.3357 43.2047 18.5817C42.9547 18.9409 42.5867 19.4161 41.7562 20.4602C41.3183 21.0102 40.8253 21.6321 40.663 21.8378C40.5006 22.0434 40.3579 22.2225 40.354 22.2225C40.3115 22.1693 40.2724 22.1134 40.2369 22.0552C39.7683 21.3524 39.1986 20.7224 38.5464 20.1856C38.4214 20.0813 38.2837 19.9682 38.2384 19.9357C38.2075 19.9156 38.1793 19.8914 38.1548 19.8639C38.1548 19.852 38.8642 19.547 39.4025 19.3305C40.3461 18.9458 41.6312 18.4872 42.5956 18.1911C43.1004 18.0316 43.6386 17.8772 43.6475 17.886V17.8929ZM43.9682 17.9765C44.0528 18.0041 44.133 18.0435 44.2064 18.0936C45.2203 18.6738 46.1583 19.3774 46.999 20.1886C47.2194 20.4051 47.7665 20.9758 47.7576 20.9758C47.7488 20.9758 47.5608 20.9925 47.3404 21.0092C45.584 21.1431 43.3345 21.515 41.1717 22.0365C41.0261 22.07 40.8962 22.0985 40.8883 22.0985C40.8805 22.0985 41.0428 21.9362 41.2475 21.7403C42.5159 20.5182 43.0964 19.7418 43.7803 18.3642C43.8787 18.1606 43.9604 17.9854 43.9682 17.9706V17.9765ZM34.6734 18.9281C34.7324 18.9409 35.2746 19.1947 35.6839 19.3994C36.0598 19.5874 36.6227 19.8914 36.6522 19.9131C36.6522 19.9131 36.4554 20.0213 36.2094 20.1423C35.4222 20.5359 34.7531 20.9059 34.0515 21.332C33.8547 21.453 33.6845 21.5534 33.6805 21.5534C33.6766 21.5534 33.6677 21.5367 33.7789 21.332C34.1678 20.609 34.453 19.8349 34.6261 19.0324C34.6429 18.9694 34.6596 18.9281 34.6714 18.9281H34.6734ZM34.1312 19.0265C34.0727 19.2984 34.0002 19.567 33.9137 19.8314C33.7191 20.4172 33.4721 20.9843 33.1757 21.5258C33.1088 21.6429 33.0085 21.8141 32.9543 21.9106L32.8461 22.0788L32.6119 21.8535C32.3849 21.6231 32.1229 21.4302 31.8355 21.2818C31.7659 21.25 31.6999 21.2107 31.6387 21.1647C31.6387 21.1312 32.3521 20.4848 32.8992 20.0174C33.2928 19.6789 34.1174 19.0156 34.1302 19.0334L34.1312 19.0265ZM37.4492 20.3913L37.6539 20.5241C38.1536 20.8515 38.6342 21.2069 39.0935 21.5888C39.3316 21.7856 39.7902 22.1979 39.8807 22.2983L39.9309 22.3524L39.5924 22.4508C37.6805 22.9802 36.2035 23.4525 34.4756 24.0862C34.2837 24.157 34.1214 24.2161 34.1086 24.2161C34.0958 24.2161 34.0623 24.2368 34.4923 23.8402C35.5497 22.8795 36.491 21.7983 37.2967 20.6186L37.4433 20.3932L37.4492 20.3913ZM36.5764 20.6078C36.5853 20.6166 36.0136 21.4215 35.6712 21.8771C35.2618 22.4193 34.5356 23.3295 34.0348 23.9219C33.8262 24.1679 33.6471 24.3725 33.6412 24.3765C33.6353 24.3804 33.6244 24.3184 33.6244 24.222C33.6196 23.701 33.4986 23.1877 33.2702 22.7194C33.1718 22.5226 33.157 22.4823 33.1787 22.4606C33.2574 22.3898 34.4726 21.697 35.2402 21.2798C35.7577 21.0043 36.5676 20.591 36.5794 20.6038L36.5764 20.6078ZM31.3012 21.9066C31.3759 21.9381 31.4485 21.9743 31.5187 22.0149C31.7723 22.1529 32.0124 22.3143 32.236 22.497C32.1642 22.5729 32.0828 22.639 31.9939 22.6938C31.6003 22.9772 30.9972 23.4328 30.6459 23.7123C30.2788 24.0075 30.266 24.0124 30.3084 23.9504C30.6979 23.3848 31.0042 22.7661 31.2176 22.1133C31.2339 22.0384 31.2622 21.9667 31.3012 21.9007V21.9066ZM32.7083 23.0087C32.729 23.0087 32.7536 23.0422 32.8668 23.2055C33.1105 23.5714 33.2714 23.9862 33.3381 24.4208L33.346 24.5044L32.7743 24.7248C31.7519 25.1184 30.8063 25.512 30.1696 25.8072C29.9905 25.8909 29.6776 26.0404 29.4729 26.1408C29.2683 26.2412 29.102 26.3248 29.102 26.3209C29.102 26.3169 29.2309 26.2225 29.3893 26.1034C30.638 25.1981 31.7184 24.2043 32.5283 23.2114C32.6158 23.1071 32.6955 23.0146 32.7034 23.0068L32.7083 23.0087ZM32.0589 23.1642C32.0756 23.1809 31.6003 23.7192 31.2717 24.0498C30.4964 24.8472 29.6278 25.5483 28.6848 26.1378L28.4338 26.2963C28.4053 26.313 28.4427 26.2717 28.8766 25.8043C29.1522 25.5091 29.3608 25.2572 29.5989 24.9482C29.7097 24.7899 29.8516 24.6559 30.0161 24.5546C30.6291 24.1078 32.0441 23.1475 32.0589 23.1642Z" fill="url(#paint2_radial_5227_9536)"/>
<path d="M13.9889 40.446C13.9121 40.446 13.8344 40.4529 13.7586 40.4529C12.2039 40.5366 11.155 41.2204 10.5409 42.5567C10.0165 43.766 10.0745 45.3454 10.5468 46.5616C11.1008 47.7503 11.9864 48.3761 13.4703 48.6142C13.7842 48.6654 13.9948 48.8376 14.6029 49.548L15.3507 50.4248H16.7096L15.8073 49.5146C15.3084 49.0157 14.905 48.5817 14.905 48.5434C14.905 48.505 15.0959 48.4223 15.3271 48.3515C16.0887 48.1212 16.7205 47.5328 17.1633 46.6315C17.5214 45.9072 17.5726 45.6839 17.6238 44.7835C17.7586 42.1021 16.3446 40.4264 13.9908 40.445L13.9889 40.446ZM15.1785 47.457C14.5183 47.7768 13.5599 47.8408 12.934 47.6105C12.2875 47.3734 11.6607 46.7013 11.3793 45.9377C11.0654 45.1063 11.1107 43.5712 11.4689 42.8804C12.0445 41.7803 12.8061 41.2736 13.918 41.2736C15.5692 41.2736 16.5079 42.2851 16.6299 44.1842C16.7283 45.7705 16.196 46.9601 15.1795 47.4531L15.1785 47.457ZM38.6204 42.7338C38.0506 42.7338 37.6147 42.9641 37.3215 43.4226L37.0912 43.7818V42.847H36.1072V48.4509H37.0912V46.66C37.0912 45.0216 37.1119 44.8307 37.3412 44.382C37.6561 43.768 38.1992 43.461 38.7188 43.6076L39.071 43.7109V42.7378H38.6164L38.6204 42.7338ZM32.8325 42.6827C32.6301 42.6845 32.4285 42.7083 32.2313 42.7535C30.9127 43.0979 30.1649 44.3594 30.215 45.6573C30.215 46.7446 30.4266 47.2878 30.9511 47.8585C32.0256 48.7441 32.9978 48.81 34.3095 48.3377C34.5328 48.2393 34.7769 48.1321 34.7769 48.1321V47.2465L34.3095 47.4905C33.2477 47.952 32.4487 47.952 31.8081 47.4078C31.3998 46.9926 31.2177 46.4937 31.137 45.924H35.1104V45.1682C35.1104 43.6283 34.1835 42.6561 32.8335 42.6807L32.8325 42.6827ZM31.2266 45.1427C31.2266 45.1427 31.3732 44.1823 31.9154 43.8044C32.1661 43.6272 32.4654 43.5316 32.7725 43.5309C33.0728 43.5312 33.3648 43.6297 33.6039 43.8113C34.1028 44.1951 34.1865 45.1358 34.1865 45.1358H31.2246V45.1427H31.2266ZM7.47775 44.1311C6.40912 43.4836 5.93582 43.0172 5.99388 42.4721C6.15919 40.9498 8.0406 41.1604 9.08167 41.737L9.08954 40.7127C8.64177 40.5426 8.16729 40.4537 7.68832 40.45C6.42192 40.4313 5.60323 40.8436 5.21947 41.6908C4.65662 42.9385 5.15551 43.8782 6.9582 44.9272C7.97073 45.5176 8.41747 46.0273 8.41747 46.5852C8.41747 47.7365 7.02904 48.1389 5.59732 47.4167C5.30212 47.2691 5.05219 47.1471 5.0394 47.1471C4.98823 47.4738 5.0148 48.2551 5.0148 48.2551C5.37107 48.3928 5.73935 48.4972 6.11491 48.567C7.75228 48.8937 9.24206 48.1252 9.38277 46.8784C9.50479 45.7075 9.08167 45.0935 7.47775 44.135V44.1311ZM47.3386 42.6689C47.1337 42.6713 46.9295 42.695 46.7295 42.7397C45.4129 43.0841 44.671 44.3456 44.7222 45.6445C44.7222 46.7269 44.9327 47.2681 45.4572 47.8378C46.5317 48.7234 47.5039 48.7913 48.8215 48.317C49.0449 48.2186 49.2879 48.1134 49.2879 48.1134V47.2278L48.8205 47.4708C47.7578 47.9313 46.9578 47.9313 46.3202 47.3872C45.9089 46.9719 45.7298 46.4789 45.6481 45.9033H49.6136V45.1476C49.6136 43.6145 48.6857 42.6413 47.3366 42.6669L47.3386 42.6689ZM45.7317 45.1289C45.7317 45.1289 45.8803 44.1695 46.4205 43.7847C46.6706 43.6068 46.9697 43.5109 47.2766 43.5102C47.5775 43.51 47.8701 43.6089 48.1091 43.7916C48.608 44.1754 48.6916 45.122 48.6916 45.122H45.7376V45.1289H45.7317ZM27.6763 44.1449C26.6077 43.4994 26.1354 43.031 26.1934 42.4809C26.3587 40.9577 28.2392 41.1693 29.2812 41.7449L29.2881 40.7216C28.8405 40.5509 28.3659 40.4622 27.8869 40.4598C26.6215 40.4411 25.8028 40.8534 25.418 41.7016C24.8562 42.9483 25.361 43.8881 27.1587 44.937C28.1693 45.5274 28.616 46.0302 28.616 46.5882C28.616 47.7394 27.2286 48.1478 25.7959 47.4187C25.5007 47.272 25.2537 47.151 25.239 47.151C25.1878 47.4777 25.2134 48.259 25.2134 48.259C25.5682 48.3945 25.9339 48.4995 26.3066 48.5729C27.945 48.9006 29.4357 48.133 29.5764 46.8863C29.6984 45.7193 29.2753 45.1043 27.6763 44.1449ZM53.1265 42.724C52.5577 42.724 52.1169 42.9542 51.8286 43.4128L51.5983 43.771V42.8381H50.6143V48.4351H51.5983V46.6442C51.5983 45.0069 51.618 44.815 51.8473 44.3673C52.1632 43.7533 52.7054 43.4462 53.2298 43.5938L53.5821 43.6922V42.7191L53.1265 42.724ZM19.8427 44.1114V40.5415H18.8489V48.4479H23.0259V47.5141H19.8427V44.1114ZM42.8102 45.2273L41.9916 47.3567L41.2044 45.2155L40.4044 42.8411H39.3879C40.0472 44.7107 40.7655 46.6088 41.4858 48.4499C41.7987 48.4568 42.1126 48.4499 42.4265 48.4499L43.5315 45.674L44.6552 42.8391H43.684C43.684 42.8391 43.255 43.9648 42.8073 45.2243L42.8102 45.2273ZM22.1305 38.3875C22.2052 38.3898 22.2796 38.3767 22.3491 38.3489C22.4185 38.3211 22.4814 38.2793 22.5339 38.2261C22.5874 38.1756 22.6298 38.1145 22.6584 38.0468C22.687 37.979 22.7013 37.9061 22.7002 37.8325C22.7018 37.7589 22.6877 37.6858 22.6591 37.618C22.6304 37.5502 22.5878 37.4892 22.5339 37.4389C22.4283 37.3374 22.2868 37.2819 22.1403 37.2844C22.0657 37.2821 21.9914 37.2951 21.922 37.3227C21.8526 37.3503 21.7896 37.3919 21.7369 37.4448C21.6846 37.4959 21.6433 37.5572 21.6157 37.6249C21.5881 37.6926 21.5748 37.7653 21.5765 37.8384C21.5736 37.9117 21.5864 37.9847 21.6141 38.0526C21.6417 38.1205 21.6836 38.1817 21.7369 38.232C21.7887 38.283 21.8503 38.3229 21.9179 38.3495C21.9856 38.376 22.0579 38.3886 22.1305 38.3865V38.3875ZM21.7792 37.4783C21.8493 37.4083 21.9386 37.3605 22.0358 37.3411C22.133 37.3217 22.2337 37.3314 22.3254 37.369C22.4171 37.4066 22.4956 37.4705 22.5511 37.5527C22.6066 37.6348 22.6365 37.7315 22.6373 37.8306C22.6382 37.8969 22.6256 37.9628 22.6005 38.0241C22.5753 38.0855 22.5379 38.1412 22.4906 38.1878C22.4445 38.2339 22.3895 38.2701 22.329 38.2943C22.2684 38.3185 22.2036 38.3301 22.1384 38.3285C22.0731 38.3311 22.0079 38.3199 21.9472 38.2956C21.8866 38.2714 21.8316 38.2346 21.7861 38.1878C21.7388 38.1412 21.7015 38.0855 21.6763 38.0241C21.6511 37.9628 21.6386 37.8969 21.6395 37.8306C21.6373 37.7654 21.6486 37.7005 21.6726 37.6399C21.6967 37.5792 21.733 37.5242 21.7792 37.4783V37.4783ZM22.0154 37.8817H22.0803C22.1256 37.8817 22.1708 37.926 22.2082 38.0096L22.286 38.1818H22.407L22.3086 37.99C22.2692 37.9132 22.2309 37.868 22.1866 37.8561C22.2377 37.8476 22.2847 37.8228 22.3204 37.7853C22.3511 37.75 22.3666 37.704 22.3637 37.6574C22.3655 37.6319 22.3613 37.6063 22.3513 37.5827C22.3414 37.5591 22.3261 37.5382 22.3066 37.5216C22.2464 37.4801 22.1739 37.4604 22.101 37.4655H21.8973V38.1818H22.0006V37.8866L22.0154 37.8817ZM22.0154 37.5482H22.1049C22.1521 37.5448 22.1992 37.5561 22.2397 37.5806C22.2521 37.5917 22.2615 37.6057 22.267 37.6213C22.2725 37.637 22.2739 37.6538 22.2712 37.6702C22.2712 37.7528 22.2191 37.7922 22.1246 37.7922H22.0144V37.5521L22.0154 37.5482ZM5.61012 37.8178C5.61012 37.5688 5.60224 37.3828 5.59634 37.2736H5.60224C5.62215 37.3725 5.65113 37.4693 5.68884 37.5629L6.64233 39.6923H6.80174L7.75524 37.5432C7.78923 37.4558 7.81685 37.366 7.83789 37.2746H7.84576C7.82707 37.4871 7.82018 37.6682 7.82018 37.8188V39.6992H8.14884V36.9046H7.73457L6.85783 38.848C6.82536 38.9258 6.78108 39.0448 6.72302 39.1934H6.71023C6.6767 39.0796 6.63391 38.9687 6.58231 38.8618L5.72623 36.8938H5.29524V39.6884H5.6052V37.8188L5.61012 37.8178ZM8.85732 37.8227H9.13972V39.5634H8.8583L8.85732 37.8227ZM8.99901 37.1851C9.02617 37.1856 9.05315 37.1806 9.07834 37.1705C9.10354 37.1603 9.12642 37.1452 9.14563 37.126C9.16559 37.1071 9.18154 37.0844 9.19253 37.0592C9.20351 37.034 9.20932 37.0069 9.20959 36.9794C9.21072 36.9517 9.20555 36.9241 9.19447 36.8987C9.18339 36.8733 9.16669 36.8508 9.14563 36.8328C9.12631 36.8135 9.10326 36.7983 9.07789 36.7881C9.05252 36.778 9.02535 36.7731 8.99803 36.7737C8.97084 36.7729 8.94377 36.7777 8.91853 36.7879C8.8933 36.7981 8.87044 36.8133 8.85141 36.8328C8.83128 36.8516 8.81514 36.8743 8.80398 36.8995C8.79282 36.9247 8.78687 36.9518 8.78647 36.9794C8.78484 37.0072 8.78988 37.0351 8.80118 37.0606C8.81247 37.0861 8.8297 37.1085 8.85141 37.126C8.89082 37.1639 8.94336 37.1851 8.99803 37.1851H8.99901ZM11.1481 39.6018V39.2948C11.0075 39.405 10.8346 39.4658 10.6561 39.4679C10.5641 39.4713 10.4724 39.4547 10.3875 39.4192C10.3025 39.3837 10.2263 39.3301 10.1641 39.2623C10.0349 39.109 9.96842 38.9125 9.97809 38.7122C9.967 38.5004 10.0374 38.2923 10.1749 38.1307C10.2378 38.0615 10.315 38.0069 10.4012 37.9705C10.4873 37.9342 10.5803 37.917 10.6738 37.9201C10.8439 37.921 11.0097 37.9746 11.1481 38.0736V37.7489C11.0054 37.6771 10.8472 37.6416 10.6876 37.6456C10.5476 37.639 10.4079 37.6624 10.2778 37.7141C10.1476 37.7659 10.03 37.8448 9.93283 37.9457C9.74043 38.1635 9.63992 38.4474 9.65239 38.7378C9.64121 39.0009 9.73258 39.2581 9.90724 39.4551C9.99511 39.5491 10.102 39.6234 10.2207 39.6729C10.3395 39.7225 10.4674 39.7462 10.596 39.7425C10.7884 39.7433 10.9778 39.6949 11.1461 39.6018H11.1481ZM11.954 38.6738C11.9438 38.4818 11.9952 38.2915 12.1006 38.1307C12.1372 38.0777 12.1859 38.0344 12.2428 38.0042C12.2997 37.9741 12.3629 37.9581 12.4273 37.9575C12.513 37.9507 12.5985 37.9736 12.6693 38.0224V37.6898C12.6081 37.6685 12.5432 37.6595 12.4784 37.6633C12.3662 37.6638 12.2575 37.7027 12.1704 37.7735C12.0656 37.8613 11.9901 37.9791 11.954 38.111H11.9471V37.7026H11.6283V39.6982H11.9481V38.6738H11.954ZM13.7901 39.7376C13.9241 39.7433 14.0578 39.7204 14.1823 39.6705C14.3069 39.6207 14.4193 39.5449 14.5124 39.4483C14.6983 39.2371 14.7946 38.9618 14.781 38.6807C14.781 38.355 14.6983 38.1051 14.5311 37.9191C14.442 37.8253 14.3335 37.752 14.2132 37.7046C14.0928 37.6572 13.9635 37.6367 13.8344 37.6446C13.7026 37.6385 13.5709 37.6586 13.447 37.7037C13.323 37.7488 13.2092 37.818 13.1121 37.9073C13.011 38.0145 12.9327 38.1411 12.8819 38.2795C12.8312 38.4178 12.8091 38.5651 12.8169 38.7122C12.8031 38.9813 12.8945 39.2453 13.0718 39.4483C13.1636 39.5448 13.2751 39.6205 13.3987 39.6702C13.5222 39.7199 13.6551 39.7426 13.7881 39.7366L13.7901 39.7376ZM13.3355 38.112C13.3972 38.0478 13.4718 37.9975 13.5544 37.9644C13.6371 37.9313 13.7258 37.9162 13.8147 37.9201C13.9031 37.9149 13.9914 37.9294 14.0735 37.9626C14.1555 37.9958 14.2291 38.0468 14.289 38.112C14.3994 38.2821 14.4591 38.4802 14.4611 38.683C14.4632 38.8858 14.4076 39.085 14.3008 39.2574C14.2423 39.3263 14.1685 39.3806 14.0853 39.4162C14.0022 39.4517 13.9119 39.4674 13.8216 39.462C13.7305 39.4656 13.6398 39.4492 13.5558 39.4138C13.4718 39.3784 13.3966 39.325 13.3355 39.2574C13.207 39.0986 13.1431 38.8973 13.1564 38.6935C13.1458 38.5895 13.1562 38.4845 13.1869 38.3846C13.2177 38.2847 13.2682 38.192 13.3355 38.112V38.112ZM16.1812 39.5634C16.2407 39.5133 16.2883 39.4506 16.3205 39.3797C16.3527 39.3089 16.3686 39.2318 16.3672 39.154C16.3688 39.0866 16.3566 39.0195 16.3314 38.9569C16.3062 38.8943 16.2685 38.8375 16.2206 38.79C16.1118 38.6941 15.9855 38.6203 15.8486 38.5725C15.7411 38.5318 15.64 38.4758 15.5485 38.4062C15.5209 38.3797 15.4991 38.3478 15.4847 38.3123C15.4703 38.2769 15.4635 38.2388 15.4649 38.2005C15.4645 38.1623 15.4732 38.1245 15.4903 38.0903C15.5074 38.056 15.5324 38.0264 15.5633 38.0037C15.6373 37.9489 15.7282 37.9217 15.8201 37.927C15.9829 37.9242 16.1423 37.9739 16.2747 38.0687V37.7489C16.1415 37.6827 15.9945 37.6489 15.8457 37.6505C15.6626 37.6431 15.4829 37.7022 15.3399 37.8168C15.2845 37.8628 15.2387 37.9193 15.2051 37.9831C15.1716 38.0468 15.1509 38.1166 15.1443 38.1883C15.1378 38.2601 15.1454 38.3324 15.1668 38.4012C15.1882 38.47 15.2229 38.5339 15.2691 38.5892C15.3718 38.6878 15.4937 38.7642 15.6272 38.8136C15.7443 38.8595 15.8543 38.9218 15.9539 38.9986C15.9809 39.0224 16.0022 39.0518 16.0165 39.0848C16.0308 39.1178 16.0377 39.1535 16.0366 39.1895C16.0366 39.3754 15.9087 39.4719 15.6597 39.4719C15.4695 39.473 15.2853 39.4052 15.1411 39.281V39.6264C15.291 39.711 15.4612 39.7529 15.6331 39.7474C15.8324 39.7512 16.0267 39.6858 16.1832 39.5624L16.1812 39.5634ZM17.7035 37.6446C17.5717 37.6387 17.4401 37.6588 17.3162 37.7039C17.1922 37.749 17.0784 37.8181 16.9812 37.9073C16.8803 38.0146 16.8021 38.1413 16.7513 38.2796C16.7006 38.4179 16.6784 38.5651 16.686 38.7122C16.6727 38.9813 16.7641 39.245 16.9409 39.4483C17.1346 39.6337 17.3925 39.7372 17.6607 39.7372C17.9289 39.7372 18.1867 39.6337 18.3805 39.4483C18.5673 39.238 18.6638 38.9626 18.6491 38.6817C18.6491 38.355 18.5655 38.1051 18.4001 37.9201C18.3106 37.8269 18.202 37.7541 18.0818 37.7065C17.9616 37.659 17.8326 37.6379 17.7035 37.6446V37.6446ZM18.3244 38.6935C18.3388 38.8945 18.282 39.0941 18.164 39.2574C18.1055 39.3264 18.0318 39.3808 17.9486 39.4164C17.8654 39.4519 17.7751 39.4675 17.6848 39.462C17.5937 39.4656 17.503 39.4492 17.419 39.4138C17.335 39.3784 17.2598 39.325 17.1987 39.2574C17.0702 39.0986 17.0063 38.8973 17.0196 38.6935C17.0054 38.4786 17.076 38.2666 17.2164 38.1031C17.2783 38.039 17.3532 37.9888 17.4359 37.9557C17.5187 37.9226 17.6075 37.9075 17.6966 37.9112C17.7845 37.907 17.8723 37.922 17.9539 37.9551C18.0355 37.9883 18.1088 38.0388 18.1689 38.1031C18.284 38.2777 18.3399 38.4847 18.3283 38.6935H18.3244ZM19.1883 39.6923H19.5072V37.9644H19.9746V37.6958H19.5072V37.3878C19.5072 37.1073 19.6164 36.9666 19.8407 36.9666C19.9139 36.9662 19.9859 36.9841 20.0503 37.0188V36.7304C19.9764 36.7046 19.8981 36.6939 19.8201 36.699C19.7417 36.696 19.6636 36.7086 19.5901 36.736C19.5167 36.7633 19.4494 36.8049 19.392 36.8584C19.3227 36.9249 19.2684 37.0055 19.233 37.0948C19.1975 37.1841 19.1816 37.28 19.1864 37.376V37.7036H18.8489V37.9723H19.1864V39.6933L19.1883 39.6923ZM20.499 39.1472C20.499 39.5408 20.6712 39.7376 21.0235 39.7376C21.128 39.7432 21.232 39.7204 21.3246 39.6716V39.3971C21.2651 39.4408 21.1928 39.4637 21.1189 39.462C21.0768 39.467 21.0342 39.4621 20.9943 39.4475C20.9545 39.433 20.9187 39.4093 20.8897 39.3784C20.8358 39.2927 20.8109 39.192 20.8188 39.0911V37.9634H21.3246V37.6948H20.8188V37.1044C20.7086 37.1418 20.6004 37.1742 20.498 37.2028V37.6879H20.1536V37.9565H20.498V39.1373L20.499 39.1472ZM54.8278 42.8253C54.7222 42.724 54.5806 42.6688 54.4342 42.6718C54.3603 42.67 54.2867 42.6831 54.2179 42.7103C54.1491 42.7376 54.0865 42.7784 54.0339 42.8304C53.9812 42.8824 53.9396 42.9445 53.9115 43.0129C53.8834 43.0814 53.8695 43.1548 53.8704 43.2288C53.8682 43.3019 53.8812 43.3746 53.9087 43.4424C53.9361 43.5101 53.9774 43.5714 54.0298 43.6224C54.1387 43.725 54.2838 43.7802 54.4333 43.7759C54.5078 43.7781 54.582 43.765 54.6513 43.7376C54.7207 43.7102 54.7838 43.669 54.8367 43.6165C54.8895 43.5655 54.9315 43.5044 54.9599 43.4367C54.9883 43.369 55.0026 43.2963 55.002 43.2229C55.0009 43.1491 54.9851 43.0763 54.9555 43.0087C54.926 42.9412 54.8832 42.8802 54.8298 42.8293L54.8278 42.8253ZM54.7757 43.5811C54.7299 43.6272 54.675 43.6634 54.6146 43.6872C54.5541 43.7111 54.4894 43.7222 54.4244 43.7198C54.3593 43.722 54.2945 43.7108 54.2339 43.6869C54.1733 43.6631 54.1182 43.627 54.0721 43.5811C54.0249 43.534 53.9877 43.478 53.9625 43.4163C53.9373 43.3546 53.9247 43.2885 53.9255 43.2219C53.9232 43.1566 53.9346 43.0916 53.9588 43.0309C53.983 42.9703 54.0196 42.9154 54.0662 42.8696C54.1626 42.7799 54.2893 42.73 54.421 42.73C54.5526 42.73 54.6793 42.7799 54.7757 42.8696C54.8228 42.9153 54.86 42.9701 54.8852 43.0307C54.9104 43.0912 54.9231 43.1563 54.9223 43.2219C54.9257 43.2888 54.9144 43.3555 54.8892 43.4176C54.864 43.4796 54.8256 43.5354 54.7767 43.5811H54.7757ZM54.4893 43.2593C54.54 43.2491 54.5867 43.2249 54.6241 43.1894C54.6548 43.1534 54.6704 43.1068 54.6674 43.0595C54.6691 43.0343 54.6648 43.0091 54.6548 42.9858C54.6449 42.9626 54.6297 42.942 54.6104 42.9257C54.5504 42.8846 54.4783 42.8648 54.4057 42.8696H54.2V43.585H54.3034V43.279H54.3663C54.4106 43.279 54.4549 43.3232 54.4943 43.4069L54.571 43.5791H54.692L54.5936 43.3872C54.5602 43.3036 54.5218 43.2652 54.4834 43.2534L54.4893 43.2593ZM54.4195 43.1953H54.3093V42.9533H54.3968C54.444 42.949 54.4913 42.9601 54.5317 42.9848C54.5572 43.0034 54.5631 43.028 54.5631 43.0743C54.5631 43.157 54.512 43.1953 54.4165 43.1953H54.4195ZM36.5736 37.6131H36.6632V36.8967H36.9003V36.8072H36.3365V36.8967H36.5736V37.6131V37.6131ZM37.1168 37.0748C37.1186 37.0216 37.1166 36.9684 37.1109 36.9154C37.1166 36.9438 37.1251 36.9715 37.1365 36.9981L37.411 37.6131H37.4553L37.7308 36.9922C37.7387 36.9735 37.7446 36.9489 37.7564 36.9154C37.7505 36.9794 37.7505 37.0306 37.7505 37.0699V37.6121H37.8489V36.8072H37.7338L37.4848 37.3632C37.4789 37.3828 37.4592 37.4212 37.4465 37.4616H37.4396C37.4297 37.4278 37.4172 37.3949 37.4022 37.3632L37.1532 36.8003H37.0243V37.6072H37.1139V37.0689L37.1168 37.0748Z" fill="#231F1F"/>
</g>
<defs>
<linearGradient id="paint0_linear_5227_9536" x1="25.8635" y1="33.7973" x2="27.8814" y2="32.6049" gradientUnits="userSpaceOnUse">
<stop stop-color="#909CA9"/>
<stop offset="1" stop-color="#EDEDEE"/>
</linearGradient>
<linearGradient id="paint1_linear_5227_9536" x1="25.9106" y1="11.3251" x2="27.5343" y2="11.3251" gradientUnits="userSpaceOnUse">
<stop stop-color="#939FAB"/>
<stop offset="1" stop-color="#DCDEE1"/>
</linearGradient>
<radialGradient id="paint2_radial_5227_9536" cx="0" cy="0" r="1" gradientUnits="userSpaceOnUse" gradientTransform="translate(36.714 22.101) rotate(-169.695) scale(2.00843 4.16146)">
<stop stop-color="#EE352C"/>
<stop offset="1" stop-color="#A91D22"/>
</radialGradient>
<clipPath id="clip0_5227_9536">
<rect width="50" height="40.4247" fill="white" transform="translate(5 10)"/>
</clipPath>
</defs>
</svg>
